<svg id="svg" version="1.1" xmlns="http://www.w3.org/2000/svg" xmlns:xlink="http://www.w3.org/1999/xlink" width="400" height="130.41362530413625" viewBox="0, 0, 400,130.41362530413625"><g id="svgg"><path id="path0" d="M54.126 0.418 C 54.061 0.757,54.089 0.800,54.273 0.648 C 54.527 0.437,54.581 0.000,54.353 0.000 C 54.272 0.000,54.170 0.188,54.126 0.418 M63.944 8.444 C 63.883 8.506,63.833 8.687,63.833 8.848 C 63.833 9.037,63.657 9.179,63.333 9.250 C 62.946 9.335,62.833 9.451,62.833 9.763 C 62.833 10.100,62.751 10.167,62.333 10.167 C 61.889 10.167,61.833 10.222,61.833 10.667 C 61.833 11.111,61.778 11.167,61.333 11.167 C 60.891 11.167,60.833 11.223,60.833 11.656 C 60.833 12.065,60.759 12.153,60.375 12.197 C 60.015 12.239,59.905 12.348,59.864 12.708 C 59.823 13.066,59.723 13.167,59.413 13.167 C 59.009 13.167,58.938 13.337,58.795 14.667 C 58.764 14.954,58.634 15.100,58.375 15.137 C 58.128 15.172,58.000 15.304,58.000 15.526 C 58.000 15.747,57.828 15.927,57.500 16.051 C 57.033 16.227,57.000 16.296,57.000 17.109 C 57.000 17.933,56.976 17.981,56.542 18.031 C 56.085 18.083,56.083 18.088,56.035 19.542 C 55.992 20.854,55.955 21.000,55.666 21.000 C 54.925 21.000,54.690 23.198,55.365 23.827 C 55.565 24.014,55.790 24.167,55.865 24.167 C 55.939 24.167,56.000 24.729,56.000 25.417 L 56.000 26.667 56.500 26.667 L 57.000 26.667 57.000 27.667 C 57.000 28.615,57.021 28.667,57.406 28.667 C 57.724 28.667,57.823 28.765,57.864 29.125 C 57.905 29.482,58.016 29.595,58.364 29.635 C 58.772 29.682,58.822 29.767,58.925 30.593 C 59.026 31.398,59.082 31.500,59.425 31.500 C 59.722 31.500,59.823 31.605,59.864 31.958 C 59.905 32.318,60.015 32.428,60.375 32.469 C 60.759 32.514,60.833 32.602,60.833 33.011 C 60.833 33.443,60.891 33.500,61.333 33.500 C 61.778 33.500,61.833 33.556,61.833 34.000 C 61.833 34.444,61.889 34.500,62.333 34.500 C 62.778 34.500,62.833 34.556,62.833 35.000 C 62.833 35.442,62.890 35.500,63.322 35.500 C 63.732 35.500,63.820 35.574,63.864 35.958 C 63.901 36.280,64.024 36.432,64.276 36.468 C 64.494 36.499,64.675 36.678,64.737 36.924 C 64.797 37.165,65.000 37.369,65.238 37.429 C 65.475 37.488,65.679 37.692,65.739 37.931 C 65.811 38.217,65.956 38.333,66.242 38.333 C 66.557 38.333,66.656 38.433,66.697 38.792 C 66.739 39.152,66.848 39.261,67.208 39.303 C 67.592 39.347,67.667 39.435,67.667 39.844 L 67.667 40.333 69.083 40.333 L 70.500 40.333 70.500 37.322 C 70.500 34.349,70.394 33.667,69.932 33.667 C 69.699 33.667,69.500 32.967,69.500 32.146 C 69.500 31.746,69.431 31.667,69.083 31.667 C 68.707 31.667,68.667 31.601,68.667 30.989 C 68.667 30.148,68.422 29.667,67.994 29.667 C 67.736 29.667,67.666 29.552,67.664 29.125 C 67.660 28.184,67.497 27.833,67.064 27.833 C 66.734 27.833,66.667 27.749,66.667 27.333 C 66.667 26.889,66.611 26.833,66.167 26.833 L 65.667 26.833 65.667 25.833 C 65.667 24.837,65.665 24.833,65.175 24.833 C 64.693 24.833,64.682 24.814,64.633 23.875 C 64.586 22.971,64.558 22.914,64.132 22.865 C 63.686 22.813,63.679 22.794,63.632 21.448 C 63.587 20.177,63.558 20.080,63.208 20.030 C 62.617 19.946,62.617 14.221,63.208 14.137 C 63.541 14.089,63.589 13.974,63.633 13.125 C 63.682 12.186,63.693 12.167,64.175 12.167 C 64.608 12.167,64.667 12.108,64.667 11.678 C 64.667 11.268,64.741 11.180,65.125 11.136 C 65.605 11.081,65.855 9.775,65.590 8.715 C 65.494 8.336,64.257 8.132,63.944 8.444 M21.892 36.000 C 21.795 36.481,21.758 36.500,20.896 36.500 C 20.012 36.500,20.000 36.506,20.000 37.000 C 20.000 37.444,19.944 37.500,19.500 37.500 C 19.056 37.500,19.000 37.556,19.000 38.000 C 19.000 38.444,18.944 38.500,18.500 38.500 C 18.078 38.500,18.000 38.565,18.000 38.917 C 18.000 39.248,17.916 39.333,17.592 39.333 C 17.314 39.333,17.116 39.476,16.967 39.784 C 16.807 40.117,16.554 40.283,16.000 40.417 C 15.432 40.554,15.237 40.685,15.198 40.956 C 15.162 41.203,15.008 41.329,14.698 41.365 C 14.349 41.405,14.238 41.518,14.197 41.875 C 14.162 42.178,14.047 42.333,13.856 42.333 C 13.491 42.333,13.167 42.651,13.167 43.007 C 13.167 43.157,12.984 43.363,12.762 43.464 C 12.452 43.605,12.330 43.826,12.244 44.398 C 12.146 45.050,12.074 45.155,11.691 45.199 C 11.352 45.238,11.238 45.354,11.198 45.698 C 11.158 46.045,11.045 46.158,10.698 46.198 C 10.349 46.239,10.238 46.351,10.197 46.708 C 10.156 47.068,10.058 47.167,9.739 47.167 C 9.399 47.167,9.333 47.248,9.333 47.671 C 9.333 48.060,9.235 48.212,8.901 48.339 C 8.663 48.430,8.429 48.653,8.381 48.835 C 8.333 49.018,8.156 49.167,7.986 49.167 C 7.519 49.167,7.333 49.689,7.333 51.000 C 7.333 52.567,7.472 52.796,8.503 52.933 C 9.232 53.030,9.333 53.091,9.333 53.435 C 9.333 53.705,9.453 53.857,9.717 53.923 C 9.940 53.979,10.179 54.226,10.286 54.510 C 10.409 54.837,10.587 55.000,10.819 55.000 C 11.092 55.000,11.167 55.104,11.167 55.489 C 11.167 56.259,11.450 56.833,11.829 56.833 C 12.155 56.833,12.167 56.933,12.167 59.729 L 12.167 62.625 11.667 62.725 C 11.184 62.822,11.167 62.856,11.167 63.746 C 11.167 64.658,11.162 64.667,10.667 64.667 C 10.222 64.667,10.167 64.722,10.167 65.167 C 10.167 65.560,10.094 65.667,9.825 65.667 C 9.325 65.667,8.500 66.136,8.500 66.421 C 8.500 66.591,8.320 66.667,7.917 66.667 C 7.380 66.667,7.333 66.706,7.333 67.167 L 7.333 67.667 4.042 67.669 C 2.231 67.670,0.581 67.716,0.375 67.772 L 0.000 67.872 0.000 78.936 C 0.000 88.660,0.030 90.000,0.250 90.000 C 0.403 90.000,0.500 90.155,0.500 90.399 C 0.500 90.859,0.772 91.000,1.659 91.000 C 2.874 91.000,3.333 90.831,3.333 90.385 C 3.333 89.825,4.387 89.873,4.467 90.437 C 4.521 90.817,5.269 91.000,6.765 91.000 C 7.300 91.000,7.597 91.106,7.932 91.417 C 8.194 91.659,8.581 91.833,8.858 91.833 C 9.275 91.833,9.333 91.895,9.333 92.333 C 9.333 92.752,9.399 92.833,9.739 92.833 C 10.058 92.833,10.156 92.932,10.197 93.292 C 10.239 93.652,10.348 93.761,10.708 93.803 C 11.136 93.852,11.167 93.908,11.167 94.644 C 11.167 95.480,11.375 95.833,11.867 95.833 C 12.144 95.833,12.167 96.052,12.167 98.739 L 12.167 101.645 11.708 101.697 C 11.275 101.747,11.247 101.802,11.200 102.698 C 11.154 103.590,11.124 103.649,10.700 103.698 C 10.384 103.734,10.234 103.859,10.198 104.115 C 10.166 104.342,10.009 104.499,9.781 104.531 C 9.524 104.568,9.401 104.718,9.364 105.042 C 9.315 105.468,9.258 105.500,8.531 105.503 C 7.367 105.506,7.311 105.583,7.367 107.098 C 7.416 108.399,7.423 108.417,7.875 108.469 C 8.235 108.511,8.333 108.609,8.333 108.928 C 8.333 109.247,8.420 109.333,8.742 109.333 C 9.084 109.333,9.170 109.436,9.264 109.958 C 9.413 110.781,9.623 111.167,9.923 111.167 C 10.057 111.167,10.167 111.311,10.167 111.486 C 10.167 112.055,10.360 112.333,10.757 112.333 C 11.056 112.333,11.157 112.438,11.197 112.792 C 11.238 113.149,11.349 113.261,11.698 113.302 C 12.045 113.342,12.158 113.455,12.198 113.802 C 12.238 114.148,12.352 114.262,12.698 114.302 C 13.045 114.342,13.158 114.455,13.198 114.802 C 13.239 115.151,13.351 115.262,13.708 115.303 C 14.068 115.344,14.167 115.442,14.167 115.761 C 14.167 116.101,14.248 116.167,14.667 116.167 C 15.111 116.167,15.167 116.222,15.167 116.667 C 15.167 117.085,15.233 117.167,15.572 117.167 C 15.891 117.167,15.989 117.265,16.031 117.625 C 16.072 117.982,16.182 118.095,16.532 118.135 C 16.878 118.175,16.992 118.289,17.032 118.635 C 17.072 118.984,17.185 119.095,17.542 119.136 C 17.903 119.178,18.000 119.275,18.000 119.599 C 18.000 119.919,18.107 120.030,18.491 120.107 C 18.825 120.173,18.998 120.318,19.033 120.561 C 19.075 120.857,19.245 120.941,20.042 121.061 C 20.900 121.190,21.000 121.246,21.000 121.602 C 21.000 121.912,21.089 122.000,21.403 122.000 C 21.717 122.000,21.832 122.112,21.918 122.507 L 22.029 123.013 23.390 122.965 L 24.750 122.917 24.800 122.053 C 24.847 121.248,24.883 121.182,25.342 121.082 C 25.721 120.998,25.833 120.881,25.833 120.570 C 25.833 120.250,25.920 120.167,26.254 120.167 C 26.587 120.167,26.696 120.064,26.773 119.675 C 26.865 119.215,26.928 119.179,27.728 119.133 C 28.523 119.087,28.587 119.051,28.636 118.625 L 28.689 118.167 31.574 118.167 L 34.458 118.167 34.558 118.667 C 34.655 119.149,34.691 119.167,35.568 119.167 C 36.437 119.167,36.480 119.187,36.531 119.625 C 36.572 119.985,36.682 120.095,37.042 120.136 C 37.397 120.177,37.500 120.277,37.500 120.581 C 37.500 120.882,37.617 120.999,38.000 121.083 C 38.388 121.168,38.500 121.284,38.500 121.597 C 38.500 121.934,38.582 122.000,39.000 122.000 L 39.500 122.000 39.500 123.460 C 39.500 124.815,39.527 124.933,39.875 125.085 C 40.452 125.339,40.528 126.949,39.967 127.029 C 39.600 127.081,39.581 127.156,39.536 128.708 L 39.488 130.333 51.058 130.333 L 62.628 130.333 62.728 129.958 C 62.784 129.752,62.830 128.102,62.831 126.292 L 62.833 123.000 63.250 123.000 C 63.602 123.000,63.667 122.922,63.667 122.500 C 63.667 122.178,63.751 122.000,63.905 122.000 C 64.333 122.000,64.667 121.492,64.667 120.841 L 64.667 120.205 65.583 120.091 C 66.369 119.992,66.514 119.919,66.601 119.571 C 66.672 119.288,66.819 119.167,67.091 119.167 C 67.721 119.167,68.359 118.853,68.452 118.498 C 68.534 118.186,68.684 118.167,71.019 118.167 L 73.500 118.167 73.500 118.566 C 73.500 119.037,73.771 119.167,74.753 119.167 C 75.420 119.167,75.482 119.203,75.531 119.625 C 75.572 119.985,75.682 120.095,76.042 120.136 C 76.402 120.177,76.500 120.276,76.500 120.594 C 76.500 120.913,76.587 121.000,76.906 121.000 C 77.224 121.000,77.323 121.098,77.364 121.458 C 77.405 121.815,77.516 121.928,77.865 121.968 C 78.211 122.008,78.325 122.122,78.365 122.468 C 78.446 123.172,80.222 123.163,80.303 122.458 C 80.353 122.021,80.397 122.000,81.261 122.000 C 82.108 122.000,82.167 121.974,82.167 121.597 C 82.167 121.284,82.279 121.168,82.667 121.083 C 83.050 120.999,83.167 120.882,83.167 120.581 C 83.167 120.277,83.270 120.177,83.625 120.136 C 83.985 120.095,84.095 119.985,84.136 119.625 C 84.178 119.257,84.274 119.167,84.618 119.167 C 84.875 119.167,85.234 118.971,85.514 118.679 C 85.770 118.410,86.191 118.167,86.448 118.137 C 86.819 118.095,86.928 117.988,86.969 117.625 C 87.014 117.241,87.102 117.167,87.511 117.167 C 87.943 117.167,88.000 117.109,88.000 116.667 C 88.000 116.222,88.056 116.167,88.500 116.167 C 88.942 116.167,89.000 116.110,89.000 115.678 C 89.000 115.268,89.074 115.180,89.458 115.136 C 89.818 115.095,89.928 114.985,89.969 114.625 C 90.010 114.272,90.111 114.167,90.408 114.167 C 90.830 114.167,90.994 113.807,90.998 112.875 C 91.000 112.385,91.047 112.333,91.500 112.333 C 91.942 112.333,92.000 112.277,92.000 111.844 C 92.000 111.435,92.074 111.347,92.458 111.303 C 92.818 111.261,92.928 111.152,92.969 110.792 C 93.011 110.432,93.109 110.333,93.428 110.333 C 93.767 110.333,93.833 110.252,93.833 109.835 C 93.833 109.498,93.996 109.181,94.333 108.858 C 94.813 108.400,94.833 108.323,94.833 106.940 L 94.833 105.500 94.281 105.500 C 93.885 105.500,93.594 105.359,93.250 105.000 C 92.987 104.725,92.598 104.500,92.385 104.500 C 92.048 104.500,92.000 104.418,92.000 103.847 C 92.000 102.942,91.862 102.667,91.407 102.667 C 91.049 102.667,91.013 102.588,90.967 101.708 C 90.919 100.801,90.892 100.747,90.458 100.697 L 90.000 100.645 90.000 98.760 L 90.000 96.875 90.500 96.775 C 90.983 96.678,91.000 96.644,91.000 95.754 C 91.000 94.950,91.041 94.833,91.327 94.833 C 91.755 94.833,92.000 94.352,92.000 93.511 C 92.000 92.869,92.026 92.833,92.500 92.833 C 92.944 92.833,93.000 92.778,93.000 92.333 C 93.000 91.838,93.009 91.833,93.917 91.833 C 94.783 91.833,94.833 91.811,94.833 91.417 C 94.833 91.015,94.873 91.000,95.906 91.000 C 97.227 91.000,97.833 90.792,97.833 90.337 C 97.833 89.819,98.721 89.870,98.963 90.402 C 99.179 90.875,100.750 91.128,101.917 90.878 L 102.583 90.735 102.626 79.201 L 102.669 67.667 99.262 67.667 L 95.855 67.667 95.803 67.208 C 95.753 66.774,95.699 66.747,94.792 66.700 C 93.853 66.651,93.833 66.640,93.833 66.158 C 93.833 65.749,93.766 65.667,93.430 65.667 C 93.117 65.667,93.002 65.554,92.917 65.167 C 92.833 64.784,92.715 64.667,92.414 64.667 C 92.110 64.667,92.010 64.564,91.969 64.208 C 91.928 63.848,91.818 63.739,91.458 63.697 C 91.037 63.649,91.000 63.586,91.000 62.926 C 91.000 61.717,90.824 61.155,90.393 60.991 C 90.020 60.849,90.000 60.764,90.000 59.349 L 90.000 57.855 90.458 57.803 C 90.912 57.750,90.917 57.737,90.965 56.375 L 91.013 55.000 91.507 55.000 C 91.941 55.000,92.000 54.942,92.000 54.511 C 92.000 54.102,92.074 54.014,92.458 53.969 C 92.818 53.928,92.928 53.818,92.969 53.458 C 93.017 53.047,93.088 53.000,93.664 53.000 C 94.833 53.000,94.833 52.999,94.833 50.982 L 94.833 49.167 94.333 49.167 C 93.889 49.167,93.833 49.111,93.833 48.667 C 93.833 48.244,93.769 48.167,93.417 48.167 C 93.065 48.167,93.000 48.089,93.000 47.667 C 93.000 47.222,92.944 47.167,92.500 47.167 C 92.030 47.167,92.000 47.128,92.000 46.514 C 92.000 45.605,91.861 45.333,91.399 45.333 C 91.067 45.333,91.000 45.250,91.000 44.833 C 91.000 44.389,90.944 44.333,90.500 44.333 C 90.056 44.333,90.000 44.278,90.000 43.833 C 90.000 43.389,89.944 43.333,89.500 43.333 C 89.056 43.333,89.000 43.278,89.000 42.833 C 89.000 42.389,88.944 42.333,88.500 42.333 C 88.056 42.333,88.000 42.278,88.000 41.833 C 88.000 41.418,87.933 41.333,87.604 41.333 C 87.298 41.333,87.186 41.220,87.108 40.833 C 87.029 40.436,86.922 40.333,86.587 40.333 C 86.249 40.333,86.167 40.251,86.167 39.912 C 86.167 39.580,86.064 39.471,85.676 39.393 C 85.341 39.327,85.169 39.182,85.134 38.939 C 85.090 38.630,84.958 38.577,84.125 38.533 C 83.186 38.484,83.167 38.473,83.167 37.992 C 83.167 37.556,83.109 37.500,82.667 37.500 C 82.222 37.500,82.167 37.444,82.167 37.000 C 82.167 36.576,82.102 36.500,81.746 36.500 C 81.412 36.500,81.304 36.397,81.225 36.000 L 81.125 35.500 79.729 35.500 L 78.333 35.500 78.333 35.989 C 78.333 36.398,78.259 36.486,77.875 36.531 C 77.518 36.572,77.405 36.682,77.365 37.032 C 77.325 37.378,77.211 37.492,76.865 37.532 C 76.516 37.572,76.405 37.685,76.364 38.042 C 76.323 38.402,76.224 38.500,75.906 38.500 C 75.584 38.500,75.500 38.586,75.500 38.917 C 75.500 39.320,75.463 39.333,74.375 39.336 C 72.843 39.339,72.500 39.448,72.500 39.936 C 72.500 40.306,72.438 40.333,71.587 40.333 C 70.517 40.333,70.405 40.522,70.537 42.106 C 70.625 43.166,70.790 43.327,71.792 43.331 C 72.429 43.333,72.500 43.374,72.500 43.737 C 72.500 44.049,72.612 44.165,73.000 44.250 C 73.388 44.335,73.500 44.451,73.500 44.763 C 73.500 45.100,73.582 45.167,74.000 45.167 C 74.444 45.167,74.500 45.222,74.500 45.667 C 74.500 46.111,74.556 46.167,75.000 46.167 C 75.444 46.167,75.500 46.222,75.500 46.667 C 75.500 47.085,75.566 47.167,75.905 47.167 C 76.270 47.167,76.320 47.255,76.424 48.083 C 76.526 48.898,76.581 49.000,76.925 49.000 C 77.222 49.000,77.323 49.105,77.364 49.458 C 77.405 49.818,77.515 49.928,77.875 49.969 C 78.259 50.014,78.333 50.102,78.333 50.511 C 78.333 50.943,78.391 51.000,78.833 51.000 C 79.278 51.000,79.333 51.056,79.333 51.500 C 79.333 51.944,79.389 52.000,79.833 52.000 C 80.329 52.000,80.333 52.009,80.333 52.921 C 80.333 53.811,80.350 53.845,80.833 53.942 C 81.250 54.025,81.333 54.122,81.333 54.521 C 81.333 54.917,81.403 55.000,81.738 55.000 C 82.104 55.000,82.154 55.089,82.257 55.917 C 82.357 56.716,82.419 56.833,82.739 56.833 C 83.051 56.833,83.129 56.965,83.261 57.708 C 83.390 58.432,83.482 58.593,83.792 58.637 C 84.095 58.680,84.167 58.796,84.167 59.249 C 84.167 59.648,84.310 59.951,84.667 60.308 C 85.103 60.744,85.167 60.927,85.167 61.737 C 85.167 62.659,85.171 62.667,85.667 62.667 L 86.167 62.667 86.167 64.014 C 86.167 65.356,86.169 65.363,86.662 65.549 L 87.156 65.736 87.203 67.576 C 87.248 69.318,87.269 69.419,87.610 69.468 C 88.115 69.540,88.207 71.107,88.138 78.417 L 88.083 84.250 87.625 84.733 C 87.180 85.201,87.167 85.271,87.167 87.108 L 87.167 89.000 86.667 89.000 C 86.167 89.000,86.167 89.001,86.167 89.989 C 86.167 90.944,86.151 90.980,85.708 91.031 C 85.279 91.080,85.247 91.140,85.199 91.981 C 85.157 92.714,85.058 92.968,84.657 93.368 C 84.347 93.679,84.167 94.031,84.167 94.328 C 84.167 94.686,84.071 94.821,83.762 94.899 C 83.415 94.986,83.341 95.131,83.243 95.917 C 83.141 96.731,83.085 96.833,82.743 96.833 C 82.401 96.833,82.344 96.936,82.243 97.750 C 82.140 98.573,82.088 98.667,81.731 98.667 C 81.400 98.667,81.333 98.751,81.333 99.167 C 81.333 99.611,81.278 99.667,80.833 99.667 C 80.391 99.667,80.333 99.723,80.333 100.156 C 80.333 100.565,80.259 100.653,79.875 100.697 C 79.518 100.738,79.405 100.849,79.365 101.198 C 79.325 101.545,79.211 101.658,78.865 101.698 C 78.516 101.739,78.405 101.851,78.364 102.208 C 78.323 102.564,78.223 102.667,77.919 102.667 C 77.618 102.667,77.501 102.784,77.417 103.167 C 77.332 103.554,77.216 103.667,76.903 103.667 C 76.590 103.667,76.500 103.755,76.500 104.063 C 76.500 104.369,76.387 104.481,76.000 104.558 C 75.603 104.638,75.500 104.745,75.500 105.079 C 75.500 105.436,75.424 105.500,75.000 105.500 C 74.556 105.500,74.500 105.556,74.500 106.000 C 74.500 106.444,74.444 106.500,74.000 106.500 C 73.556 106.500,73.500 106.556,73.500 107.000 C 73.500 107.495,73.491 107.500,72.579 107.500 C 71.693 107.500,71.655 107.519,71.560 107.991 C 71.485 108.366,71.358 108.494,71.023 108.532 C 70.683 108.572,70.571 108.687,70.531 109.042 C 70.480 109.479,70.436 109.500,69.572 109.500 C 68.717 109.500,68.667 109.523,68.667 109.917 C 68.667 110.298,68.605 110.333,67.930 110.333 C 66.937 110.333,66.667 110.462,66.667 110.934 C 66.667 111.306,66.605 111.333,65.759 111.333 C 64.933 111.333,64.832 111.375,64.632 111.792 C 64.425 112.226,64.346 112.253,63.123 112.299 L 61.833 112.347 61.833 112.836 L 61.833 113.324 59.458 113.370 L 57.083 113.417 57.031 113.875 L 56.978 114.333 51.572 114.333 C 46.478 114.333,46.167 114.316,46.167 114.033 C 46.167 113.422,45.838 113.333,43.561 113.333 L 41.355 113.333 41.303 112.875 C 41.251 112.422,41.234 112.416,39.909 112.369 C 38.593 112.322,38.565 112.312,38.382 111.827 C 38.207 111.363,38.142 111.333,37.282 111.333 C 36.497 111.333,36.293 111.263,35.833 110.833 C 35.499 110.521,35.121 110.333,34.824 110.333 C 34.550 110.333,34.161 110.158,33.901 109.917 C 33.640 109.675,33.252 109.500,32.976 109.500 C 32.558 109.500,32.500 109.439,32.500 109.000 C 32.500 108.505,32.491 108.500,31.583 108.500 C 30.676 108.500,30.667 108.495,30.667 108.000 C 30.667 107.558,30.610 107.500,30.178 107.500 C 29.768 107.500,29.680 107.426,29.636 107.042 C 29.586 106.608,29.532 106.581,28.625 106.533 C 27.686 106.484,27.667 106.473,27.667 105.992 C 27.667 105.591,27.596 105.500,27.287 105.500 C 27.017 105.500,26.851 105.354,26.718 105.000 C 26.591 104.664,26.415 104.500,26.181 104.500 C 25.921 104.500,25.833 104.395,25.833 104.083 C 25.833 103.731,25.756 103.667,25.333 103.667 C 24.889 103.667,24.833 103.611,24.833 103.167 C 24.833 102.722,24.778 102.667,24.333 102.667 C 23.889 102.667,23.833 102.611,23.833 102.167 C 23.833 101.722,23.778 101.667,23.333 101.667 C 22.889 101.667,22.833 101.611,22.833 101.167 C 22.833 100.722,22.778 100.667,22.333 100.667 C 21.838 100.667,21.833 100.657,21.833 99.750 C 21.833 98.881,21.811 98.833,21.412 98.833 C 21.078 98.833,20.971 98.730,20.892 98.333 C 20.816 97.955,20.700 97.833,20.415 97.833 C 20.084 97.833,20.025 97.724,19.924 96.917 C 19.827 96.138,19.750 95.985,19.414 95.901 C 19.143 95.833,19.003 95.663,18.968 95.359 C 18.928 95.018,18.813 94.905,18.466 94.865 C 18.043 94.816,18.013 94.756,17.966 93.865 C 17.920 92.972,17.890 92.914,17.465 92.865 C 17.019 92.813,17.012 92.794,16.965 91.448 C 16.917 90.097,16.912 90.083,16.458 90.031 L 16.000 89.978 16.000 88.593 L 16.000 87.208 15.500 87.108 L 15.000 87.008 15.000 84.750 C 15.000 82.495,14.999 82.492,14.583 82.333 L 14.167 82.175 14.167 76.849 L 14.167 71.523 14.542 71.470 C 14.908 71.418,14.918 71.361,14.963 69.062 L 15.009 66.707 15.504 66.607 L 16.000 66.508 16.000 65.088 L 16.000 63.667 16.500 63.667 L 17.000 63.667 17.000 62.261 L 17.000 60.855 17.458 60.803 C 17.892 60.753,17.919 60.699,17.967 59.792 C 18.016 58.853,18.027 58.833,18.508 58.833 C 18.975 58.833,19.000 58.797,19.005 58.125 C 19.011 57.350,19.300 56.833,19.727 56.833 C 19.919 56.833,20.000 56.686,20.000 56.333 C 20.000 55.911,20.065 55.833,20.417 55.833 C 20.744 55.833,20.833 55.749,20.833 55.438 C 20.833 54.470,21.031 54.000,21.438 54.000 C 21.766 54.000,21.833 53.915,21.833 53.500 C 21.833 53.056,21.889 53.000,22.333 53.000 C 22.778 53.000,22.833 52.944,22.833 52.500 C 22.833 52.114,22.908 52.000,23.161 52.000 C 23.576 52.000,23.833 51.524,23.833 50.757 C 23.833 50.225,23.889 50.147,24.333 50.058 C 24.716 49.982,24.833 49.868,24.833 49.574 C 24.833 49.278,24.939 49.177,25.292 49.136 C 25.652 49.095,25.761 48.985,25.803 48.625 C 25.843 48.273,25.944 48.167,26.240 48.167 C 26.534 48.167,26.649 48.049,26.725 47.667 C 26.804 47.270,26.912 47.167,27.246 47.167 C 27.602 47.167,27.667 47.090,27.667 46.667 C 27.667 46.222,27.722 46.167,28.167 46.167 C 28.611 46.167,28.667 46.111,28.667 45.667 C 28.667 45.222,28.722 45.167,29.167 45.167 C 29.611 45.167,29.667 45.111,29.667 44.667 C 29.667 44.222,29.722 44.167,30.167 44.167 C 30.589 44.167,30.667 44.102,30.667 43.750 C 30.667 43.416,30.750 43.333,31.087 43.333 C 31.380 43.333,31.555 43.210,31.663 42.927 C 31.748 42.703,31.971 42.438,32.159 42.338 C 32.431 42.192,32.500 41.991,32.500 41.338 C 32.500 39.742,31.860 39.125,31.047 39.938 C 30.818 40.166,30.621 40.330,30.607 40.302 C 30.247 39.524,29.926 39.376,28.542 39.350 C 27.724 39.334,27.667 39.306,27.667 38.917 C 27.667 38.523,27.617 38.500,26.750 38.500 C 25.843 38.500,25.833 38.495,25.833 38.000 C 25.833 37.556,25.778 37.500,25.333 37.500 L 24.833 37.500 24.833 36.500 L 24.833 35.500 23.412 35.500 L 21.992 35.500 21.892 36.000 M139.875 39.444 C 139.760 39.490,139.667 39.709,139.667 39.931 C 139.667 40.327,139.644 40.333,138.125 40.336 C 136.173 40.338,135.833 40.426,135.833 40.928 C 135.833 41.284,135.754 41.321,134.875 41.367 C 133.968 41.414,133.914 41.441,133.864 41.875 C 133.820 42.259,133.732 42.333,133.322 42.333 C 132.892 42.333,132.833 42.392,132.833 42.825 C 132.833 43.300,132.805 43.318,131.958 43.366 C 131.142 43.413,131.080 43.448,131.031 43.875 C 130.986 44.259,130.898 44.333,130.489 44.333 C 130.059 44.333,130.000 44.393,130.000 44.822 C 130.000 45.232,129.926 45.320,129.542 45.364 C 129.114 45.413,129.080 45.476,129.033 46.292 C 128.984 47.138,128.966 47.167,128.491 47.167 C 128.057 47.167,128.000 47.224,128.000 47.667 C 128.000 48.037,127.922 48.167,127.700 48.167 C 127.158 48.167,127.000 48.527,127.000 49.762 C 127.000 50.958,127.000 50.958,126.500 51.058 L 126.000 51.158 126.000 52.579 C 126.000 53.964,125.990 54.000,125.604 54.000 C 125.006 54.000,125.000 54.118,125.000 65.424 C 125.000 76.463,124.993 76.333,125.596 76.333 C 125.983 76.333,125.990 76.362,126.036 78.208 L 126.083 80.083 126.542 80.136 C 126.984 80.187,127.000 80.223,127.000 81.178 C 127.000 82.162,127.002 82.167,127.492 82.167 C 127.973 82.167,127.984 82.186,128.033 83.125 C 128.080 84.027,128.110 84.086,128.532 84.135 C 128.878 84.175,128.992 84.289,129.032 84.635 C 129.072 84.984,129.185 85.095,129.542 85.136 C 129.902 85.177,130.000 85.276,130.000 85.594 C 130.000 85.916,130.086 86.000,130.417 86.000 C 130.769 86.000,130.833 86.078,130.833 86.500 C 130.833 86.942,130.890 87.000,131.322 87.000 C 131.732 87.000,131.820 87.074,131.864 87.458 C 131.905 87.815,132.016 87.928,132.365 87.968 C 132.711 88.008,132.825 88.122,132.865 88.468 C 132.914 88.889,132.974 88.920,133.865 88.966 C 134.756 89.013,134.816 89.043,134.865 89.466 C 134.914 89.891,134.972 89.920,135.875 89.967 C 136.751 90.012,136.833 90.050,136.833 90.402 C 136.833 90.892,137.502 91.000,140.523 91.000 L 142.667 91.000 142.667 91.417 L 142.667 91.833 145.500 91.833 L 148.333 91.833 148.333 91.417 L 148.333 91.000 150.477 91.000 C 153.515 91.000,154.167 90.893,154.167 90.394 C 154.167 90.024,154.226 90.000,155.167 90.000 C 156.163 90.000,156.167 89.998,156.167 89.508 C 156.167 89.027,156.186 89.016,157.125 88.967 C 158.028 88.920,158.086 88.891,158.135 88.467 C 158.183 88.050,158.251 88.013,159.052 87.967 C 159.857 87.920,159.920 87.885,159.969 87.458 C 160.014 87.074,160.102 87.000,160.511 87.000 C 160.943 87.000,161.000 86.942,161.000 86.500 C 161.000 86.056,161.056 86.000,161.500 86.000 C 161.942 86.000,162.000 85.943,162.000 85.511 C 162.000 85.102,162.074 85.014,162.458 84.969 C 162.885 84.920,162.920 84.857,162.967 84.052 C 163.013 83.251,163.050 83.183,163.467 83.135 C 163.891 83.086,163.920 83.028,163.967 82.125 C 164.016 81.186,164.027 81.167,164.508 81.167 C 164.998 81.167,165.000 81.163,165.000 80.167 C 165.000 79.226,165.024 79.167,165.394 79.167 C 165.967 79.167,166.000 78.682,166.000 70.316 C 166.000 63.265,165.989 63.006,165.678 62.839 C 165.309 62.642,147.348 62.609,146.250 62.804 L 145.583 62.922 145.536 65.836 C 145.510 67.439,145.530 68.919,145.581 69.125 L 145.673 69.500 151.420 69.500 L 157.167 69.500 157.167 72.899 L 157.167 76.297 156.770 76.397 C 156.349 76.502,156.173 76.909,156.169 77.780 C 156.167 78.201,156.090 78.321,155.795 78.363 C 155.487 78.407,155.393 78.576,155.250 79.333 C 155.107 80.091,155.013 80.259,154.705 80.303 C 154.444 80.341,154.333 80.470,154.333 80.738 C 154.333 81.073,154.229 81.133,153.496 81.219 C 152.494 81.338,152.333 81.423,152.333 81.832 C 152.333 82.049,152.193 82.161,151.875 82.197 C 151.517 82.239,151.405 82.349,151.364 82.703 L 151.312 83.156 149.448 83.203 L 147.583 83.250 147.531 83.708 L 147.478 84.167 145.489 84.167 L 143.500 84.167 143.500 83.667 L 143.500 83.167 142.095 83.167 C 140.783 83.167,140.681 83.142,140.572 82.792 C 140.413 82.281,140.203 82.172,139.375 82.169 C 138.729 82.167,138.667 82.129,138.667 81.746 C 138.667 81.413,138.564 81.304,138.176 81.227 C 137.841 81.160,137.669 81.015,137.634 80.773 C 137.599 80.524,137.445 80.401,137.125 80.364 C 136.741 80.320,136.667 80.232,136.667 79.822 C 136.667 79.418,136.598 79.333,136.269 79.333 C 135.913 79.333,135.856 79.234,135.727 78.375 C 135.605 77.561,135.527 77.409,135.208 77.363 C 134.880 77.317,134.833 77.212,134.833 76.522 C 134.833 75.687,134.625 75.333,134.133 75.333 C 133.848 75.333,133.833 74.861,133.833 65.583 L 133.833 55.833 134.232 55.833 C 134.740 55.833,134.833 55.573,134.833 54.153 C 134.833 53.050,134.851 53.000,135.229 53.000 C 135.646 53.000,135.833 52.529,135.833 51.479 C 135.833 51.079,135.902 51.000,136.250 51.000 C 136.584 51.000,136.667 50.917,136.667 50.579 C 136.667 50.245,136.770 50.138,137.167 50.058 C 137.554 49.981,137.667 49.869,137.667 49.563 C 137.667 49.211,137.742 49.167,138.344 49.167 C 139.186 49.167,139.667 48.922,139.667 48.494 C 139.667 48.209,139.783 48.167,140.570 48.167 C 141.438 48.167,141.478 48.147,141.583 47.667 L 141.693 47.167 145.497 47.167 L 149.301 47.167 149.475 47.667 C 149.637 48.131,149.708 48.167,150.473 48.167 C 151.207 48.167,151.308 48.211,151.399 48.571 C 151.486 48.919,151.631 48.992,152.417 49.091 C 153.224 49.191,153.333 49.250,153.333 49.582 C 153.333 49.867,153.455 49.983,153.833 50.058 C 154.230 50.138,154.333 50.245,154.333 50.579 C 154.333 50.911,154.417 51.000,154.729 51.000 C 155.036 51.000,155.148 51.113,155.225 51.500 C 155.304 51.894,155.412 52.000,155.738 52.000 C 156.123 52.000,156.153 52.063,156.200 52.958 C 156.247 53.866,156.274 53.919,156.708 53.969 C 157.145 54.020,157.167 54.065,157.167 54.916 L 157.167 55.809 158.071 55.922 C 159.125 56.054,165.591 55.964,165.740 55.816 C 166.279 55.276,165.983 51.167,165.405 51.167 C 165.021 51.167,165.000 51.114,165.000 50.167 C 165.000 49.170,164.998 49.167,164.508 49.167 C 164.027 49.167,164.016 49.147,163.967 48.208 C 163.920 47.307,163.890 47.247,163.468 47.198 C 163.122 47.158,163.008 47.045,162.968 46.698 C 162.928 46.349,162.815 46.238,162.458 46.197 C 162.074 46.153,162.000 46.065,162.000 45.656 C 162.000 45.223,161.942 45.167,161.500 45.167 C 161.078 45.167,161.000 45.102,161.000 44.750 C 161.000 44.423,160.915 44.333,160.604 44.333 C 160.298 44.333,160.186 44.220,160.108 43.833 C 160.031 43.444,159.919 43.333,159.608 43.333 C 159.297 43.333,159.186 43.222,159.108 42.833 C 159.012 42.351,158.976 42.333,158.099 42.333 C 157.230 42.333,157.186 42.313,157.136 41.875 C 157.086 41.442,157.031 41.414,156.135 41.367 C 155.244 41.320,155.184 41.291,155.135 40.867 L 155.083 40.417 153.208 40.370 C 151.362 40.323,151.333 40.316,151.333 39.929 C 151.333 39.713,151.215 39.490,151.070 39.434 C 150.755 39.314,140.175 39.322,139.875 39.444 M279.042 39.435 C 278.876 39.509,278.833 44.803,278.833 65.101 L 278.833 90.675 279.271 90.841 C 279.520 90.936,280.973 90.988,282.646 90.962 L 285.583 90.917 285.635 90.468 C 285.675 90.122,285.789 90.008,286.135 89.968 C 286.508 89.925,286.592 89.824,286.637 89.362 C 286.676 88.946,286.753 88.831,286.942 88.903 C 287.080 88.956,287.478 89.000,287.826 89.000 C 288.395 89.000,288.468 89.050,288.558 89.500 C 288.655 89.982,288.691 90.000,289.568 90.000 C 290.437 90.000,290.480 90.021,290.531 90.458 L 290.583 90.917 292.500 91.000 C 294.338 91.080,294.419 91.099,294.470 91.462 L 294.524 91.841 297.304 91.796 C 300.044 91.751,300.084 91.745,300.137 91.375 C 300.187 91.017,300.259 91.000,301.751 91.000 C 303.529 91.000,304.167 90.828,304.167 90.346 C 304.167 90.067,304.299 90.010,305.042 89.967 C 305.858 89.920,305.920 89.886,305.969 89.458 C 306.014 89.074,306.102 89.000,306.511 89.000 C 306.943 89.000,307.000 88.942,307.000 88.500 C 307.000 88.056,307.056 88.000,307.500 88.000 C 307.944 88.000,308.000 87.944,308.000 87.500 C 308.000 87.056,308.056 87.000,308.500 87.000 C 308.944 87.000,309.000 86.944,309.000 86.500 C 309.000 86.056,309.056 86.000,309.500 86.000 C 309.944 86.000,310.000 85.944,310.000 85.500 C 310.000 85.085,310.067 85.000,310.395 85.000 C 310.835 85.000,310.995 84.460,310.998 82.958 C 311.000 82.236,311.035 82.167,311.397 82.167 C 311.775 82.167,311.800 82.098,311.912 80.749 C 312.021 79.435,312.059 79.325,312.432 79.231 L 312.833 79.131 312.833 71.899 L 312.833 64.667 312.441 64.667 C 312.023 64.667,311.838 63.735,311.835 61.625 C 311.833 60.892,311.802 60.833,311.417 60.833 C 311.041 60.833,311.000 60.767,311.000 60.156 C 311.000 59.321,310.756 58.833,310.339 58.833 C 310.117 58.833,310.006 58.696,309.969 58.375 C 309.928 58.015,309.818 57.905,309.458 57.864 C 309.047 57.817,309.000 57.746,309.000 57.169 C 309.000 56.277,308.860 56.000,308.410 56.000 C 308.111 56.000,308.010 55.895,307.969 55.542 C 307.919 55.108,307.866 55.081,306.958 55.033 C 306.020 54.984,306.000 54.973,306.000 54.492 C 306.000 54.084,305.932 54.000,305.600 54.000 C 305.305 54.000,305.153 53.868,305.025 53.500 C 304.851 53.001,304.849 53.000,303.520 53.000 C 302.192 53.000,302.189 52.999,302.136 52.542 L 302.083 52.083 297.226 52.039 C 292.169 51.993,291.500 52.065,291.500 52.654 C 291.500 52.938,291.368 52.990,290.542 53.033 C 289.639 53.080,289.580 53.109,289.531 53.533 C 289.483 53.950,289.416 53.987,288.615 54.033 C 287.810 54.080,287.746 54.115,287.697 54.542 C 287.653 54.924,287.564 55.000,287.163 55.000 L 286.682 55.000 286.633 47.347 C 286.606 43.138,286.521 39.632,286.445 39.555 C 286.290 39.401,279.371 39.289,279.042 39.435 M183.708 52.109 C 183.594 52.156,183.500 52.376,183.500 52.597 C 183.500 52.986,183.458 53.000,182.292 53.003 C 180.962 53.005,180.766 53.076,180.598 53.615 C 180.524 53.850,180.324 53.998,180.034 54.031 C 179.682 54.072,179.572 54.184,179.531 54.542 C 179.480 54.979,179.436 55.000,178.572 55.000 C 177.677 55.000,177.667 55.006,177.667 55.500 C 177.667 55.942,177.610 56.000,177.178 56.000 C 176.770 56.000,176.680 56.075,176.636 56.452 C 176.598 56.775,176.465 56.931,176.167 57.000 C 175.798 57.086,175.744 57.195,175.700 57.955 C 175.654 58.748,175.616 58.817,175.200 58.865 C 174.849 58.905,174.738 59.017,174.697 59.375 C 174.657 59.727,174.556 59.833,174.260 59.833 C 173.856 59.833,173.667 60.315,173.667 61.343 C 173.667 61.701,173.579 61.823,173.292 61.863 C 172.932 61.915,172.915 61.991,172.870 63.772 L 172.823 65.627 172.328 65.726 L 171.833 65.825 171.833 71.579 L 171.833 77.333 172.333 77.333 L 172.833 77.333 172.833 79.250 L 172.833 81.167 173.242 81.167 C 173.622 81.167,173.653 81.233,173.700 82.125 C 173.747 83.032,173.774 83.086,174.208 83.136 C 174.646 83.186,174.667 83.230,174.667 84.099 C 174.667 84.976,174.684 85.012,175.167 85.108 C 175.554 85.186,175.667 85.298,175.667 85.604 C 175.667 85.933,175.751 86.000,176.167 86.000 C 176.611 86.000,176.667 86.056,176.667 86.500 C 176.667 86.944,176.722 87.000,177.167 87.000 C 177.611 87.000,177.667 87.056,177.667 87.500 C 177.667 87.944,177.722 88.000,178.167 88.000 C 178.609 88.000,178.667 88.057,178.667 88.489 C 178.667 88.896,178.742 88.987,179.118 89.031 C 179.442 89.068,179.598 89.202,179.667 89.500 C 179.752 89.868,179.862 89.922,180.616 89.966 C 181.348 90.009,181.482 90.071,181.565 90.403 C 181.685 90.883,182.262 90.996,184.613 90.998 C 186.245 91.000,186.312 91.014,186.363 91.375 C 186.416 91.745,186.453 91.751,189.292 91.796 L 192.167 91.841 192.167 91.421 L 192.167 91.000 194.042 90.980 C 196.432 90.955,196.901 90.858,196.970 90.374 C 197.016 90.052,197.124 90.000,197.748 90.000 C 198.729 90.000,199.000 89.870,199.000 89.399 C 199.000 89.038,199.071 89.000,199.738 89.000 C 200.492 89.000,201.000 88.693,201.000 88.238 C 201.000 88.095,201.167 88.000,201.421 88.000 C 201.755 88.000,201.862 87.897,201.942 87.500 C 202.019 87.113,202.131 87.000,202.438 87.000 C 202.766 87.000,202.833 86.915,202.833 86.500 C 202.833 86.056,202.889 86.000,203.333 86.000 C 203.775 86.000,203.833 85.943,203.833 85.511 C 203.833 85.102,203.908 85.014,204.292 84.969 L 204.750 84.917 204.796 82.125 L 204.841 79.333 201.004 79.333 L 197.167 79.333 197.167 79.822 C 197.167 80.230,197.091 80.320,196.715 80.364 C 196.394 80.401,196.235 80.535,196.167 80.827 C 196.107 81.085,195.918 81.274,195.661 81.334 C 195.419 81.391,195.230 81.568,195.201 81.765 C 195.173 81.957,194.943 82.178,194.660 82.285 C 194.330 82.409,194.167 82.587,194.167 82.819 C 194.167 83.094,194.062 83.167,193.667 83.167 C 193.223 83.167,193.167 83.223,193.167 83.661 L 193.167 84.156 191.292 84.203 C 190.260 84.229,188.498 84.227,187.375 84.199 L 185.333 84.147 185.333 83.668 C 185.333 83.269,185.256 83.180,184.875 83.136 C 184.515 83.095,184.405 82.985,184.364 82.625 C 184.323 82.265,184.224 82.167,183.906 82.167 C 183.626 82.167,183.500 82.073,183.500 81.867 C 183.500 81.483,183.184 81.167,182.800 81.167 C 182.595 81.167,182.500 81.041,182.500 80.771 C 182.500 80.466,182.387 80.352,182.007 80.276 L 181.514 80.178 181.465 78.797 C 181.417 77.429,181.413 77.416,180.958 77.364 L 180.500 77.311 180.500 75.822 L 180.500 74.333 193.169 74.333 L 205.838 74.333 205.794 69.042 L 205.750 63.750 205.292 63.697 L 204.833 63.645 204.833 62.239 L 204.833 60.833 204.333 60.833 L 203.833 60.833 203.833 59.833 L 203.833 58.833 203.333 58.833 C 202.889 58.833,202.833 58.778,202.833 58.333 C 202.833 57.919,202.766 57.833,202.440 57.833 C 202.096 57.833,202.028 57.725,201.898 56.958 L 201.750 56.083 200.875 56.033 C 200.029 55.984,200.000 55.966,200.000 55.491 C 200.000 55.057,199.942 55.000,199.500 55.000 C 199.056 55.000,199.000 54.944,199.000 54.500 L 199.000 54.000 198.000 54.000 L 197.000 54.000 197.000 53.500 L 197.000 53.000 195.594 53.000 L 194.189 53.000 194.136 52.542 L 194.083 52.083 189.000 52.054 C 186.204 52.037,183.823 52.062,183.708 52.109 M221.875 52.118 C 221.609 52.169,221.500 52.307,221.500 52.595 C 221.500 52.979,221.448 53.000,220.500 53.000 C 219.504 53.000,219.500 53.002,219.500 53.492 C 219.500 53.973,219.480 53.984,218.542 54.033 C 217.634 54.081,217.581 54.108,217.531 54.542 C 217.486 54.926,217.398 55.000,216.989 55.000 C 216.559 55.000,216.500 55.059,216.500 55.491 C 216.500 55.966,216.471 55.984,215.625 56.033 L 214.750 56.083 214.700 56.958 C 214.651 57.805,214.633 57.833,214.158 57.833 C 213.732 57.833,213.667 57.895,213.667 58.297 C 213.667 58.659,213.557 58.802,213.167 58.949 L 212.667 59.138 212.667 61.402 L 212.667 63.667 213.167 63.667 C 213.612 63.667,213.667 63.722,213.667 64.171 L 213.667 64.675 216.542 64.629 L 219.417 64.583 219.469 64.125 C 219.514 63.741,219.602 63.667,220.011 63.667 C 220.443 63.667,220.500 63.609,220.500 63.167 C 220.500 62.744,220.565 62.667,220.917 62.667 C 221.309 62.667,221.333 62.615,221.333 61.773 L 221.333 60.880 222.171 60.781 C 223.178 60.661,223.333 60.578,223.333 60.157 C 223.333 59.888,223.453 59.833,224.042 59.831 C 224.870 59.828,225.079 59.719,225.239 59.208 C 225.410 58.659,230.167 58.613,230.167 59.161 C 230.167 59.587,230.647 59.833,231.477 59.833 C 232.037 59.833,232.152 59.892,232.197 60.202 C 232.230 60.432,232.403 60.606,232.661 60.666 C 232.918 60.726,233.107 60.916,233.167 61.173 C 233.226 61.421,233.401 61.603,233.611 61.634 C 233.904 61.676,233.977 61.842,234.071 62.676 C 234.174 63.586,234.217 63.667,234.592 63.667 C 234.995 63.667,235.000 63.686,235.000 65.163 L 235.000 66.659 232.125 66.704 L 229.250 66.750 229.197 67.208 L 229.145 67.667 225.840 67.667 L 222.536 67.667 222.432 68.083 C 222.335 68.470,222.252 68.501,221.288 68.515 C 219.326 68.542,218.590 68.705,218.530 69.125 C 218.484 69.448,218.377 69.500,217.750 69.500 C 217.008 69.500,216.500 69.809,216.500 70.262 C 216.500 70.428,216.302 70.500,215.847 70.500 C 214.939 70.500,214.667 70.639,214.667 71.101 C 214.667 71.433,214.583 71.500,214.167 71.500 C 213.722 71.500,213.667 71.556,213.667 72.000 C 213.667 72.444,213.611 72.500,213.167 72.500 C 212.722 72.500,212.667 72.556,212.667 73.000 C 212.667 73.444,212.611 73.500,212.167 73.500 C 211.672 73.500,211.667 73.510,211.667 74.406 C 211.667 75.270,211.646 75.314,211.208 75.364 L 210.750 75.417 210.703 79.833 C 210.651 84.743,210.672 84.954,211.209 85.030 C 211.477 85.068,211.598 85.214,211.636 85.542 C 211.680 85.926,211.768 86.000,212.178 86.000 C 212.651 86.000,212.667 86.026,212.667 86.800 C 212.667 87.646,212.873 88.000,213.367 88.000 C 213.549 88.000,213.667 88.123,213.667 88.313 C 213.667 88.770,213.994 88.970,214.837 89.030 C 215.512 89.078,215.588 89.127,215.636 89.542 C 215.686 89.979,215.730 90.000,216.594 90.000 C 217.438 90.000,217.500 90.027,217.500 90.399 C 217.500 90.936,217.741 91.000,219.764 91.000 L 221.500 91.000 221.500 91.421 L 221.500 91.841 224.292 91.796 C 227.044 91.751,227.084 91.745,227.137 91.375 C 227.187 91.017,227.259 91.000,228.751 91.000 C 230.541 91.000,231.167 90.828,231.167 90.337 C 231.167 90.040,231.274 90.000,232.083 90.000 C 232.991 90.000,233.000 89.995,233.000 89.500 C 233.000 89.056,233.056 89.000,233.500 89.000 C 233.944 89.000,234.000 88.944,234.000 88.500 C 234.000 88.060,234.058 88.000,234.482 88.000 L 234.965 88.000 235.025 89.320 C 235.058 90.046,235.147 90.702,235.223 90.778 C 235.436 90.992,241.838 91.057,242.376 90.850 L 242.835 90.674 242.793 75.295 L 242.750 59.917 242.300 59.865 C 241.876 59.816,241.846 59.756,241.800 58.865 C 241.753 57.973,241.723 57.914,241.300 57.865 C 240.883 57.817,240.846 57.749,240.800 56.948 C 240.754 56.148,240.716 56.079,240.302 56.032 C 239.955 55.992,239.842 55.878,239.802 55.532 C 239.754 55.117,239.685 55.080,238.885 55.033 C 238.084 54.987,238.017 54.950,237.969 54.533 C 237.920 54.109,237.861 54.080,236.958 54.033 C 236.020 53.984,236.000 53.973,236.000 53.492 C 236.000 53.002,235.996 53.000,235.000 53.000 C 234.058 53.000,234.000 52.977,234.000 52.604 C 234.000 52.294,233.887 52.186,233.479 52.104 C 232.906 51.990,222.477 52.002,221.875 52.118 M329.875 52.172 C 329.659 52.259,329.500 52.466,329.500 52.661 C 329.500 52.964,329.394 53.000,328.500 53.000 C 327.504 53.000,327.500 53.002,327.500 53.492 C 327.500 53.973,327.480 53.984,326.542 54.033 C 325.639 54.080,325.580 54.109,325.531 54.533 C 325.483 54.950,325.416 54.987,324.615 55.033 C 323.815 55.080,323.746 55.117,323.698 55.532 C 323.658 55.878,323.545 55.992,323.198 56.032 C 322.852 56.072,322.738 56.185,322.698 56.532 C 322.658 56.878,322.545 56.992,322.198 57.032 C 321.784 57.079,321.746 57.148,321.700 57.948 C 321.654 58.749,321.617 58.817,321.200 58.865 C 320.849 58.905,320.738 59.017,320.697 59.375 C 320.660 59.701,320.550 59.833,320.318 59.833 C 319.884 59.833,319.667 60.449,319.667 61.674 C 319.667 62.577,319.633 62.669,319.266 62.761 C 318.672 62.910,318.670 62.932,318.681 71.583 C 318.692 80.461,318.730 81.057,319.284 81.136 C 319.606 81.181,319.657 81.304,319.700 82.136 C 319.747 83.031,319.775 83.086,320.208 83.136 C 320.645 83.186,320.667 83.232,320.667 84.081 C 320.667 84.937,320.687 84.978,321.167 85.083 C 321.554 85.168,321.667 85.284,321.667 85.597 C 321.667 85.934,321.749 86.000,322.167 86.000 C 322.611 86.000,322.667 86.056,322.667 86.500 C 322.667 86.944,322.722 87.000,323.167 87.000 C 323.611 87.000,323.667 87.056,323.667 87.500 C 323.667 87.924,323.731 88.000,324.087 88.000 C 324.422 88.000,324.529 88.103,324.608 88.500 C 324.692 88.916,324.788 89.000,325.188 89.000 C 325.581 89.000,325.667 89.071,325.667 89.397 C 325.667 89.878,326.011 89.995,327.447 89.998 C 328.447 90.000,328.479 90.014,328.531 90.458 L 328.583 90.917 330.457 90.964 C 332.292 91.010,332.332 91.019,332.433 91.422 L 332.536 91.833 335.765 91.833 L 338.994 91.833 339.097 91.422 C 339.198 91.019,339.239 91.010,341.058 90.964 L 342.917 90.917 342.969 90.466 C 343.018 90.043,343.077 90.013,343.969 89.966 C 344.860 89.920,344.920 89.890,344.969 89.466 C 345.018 89.043,345.077 89.013,345.969 88.966 C 346.865 88.919,346.920 88.892,346.969 88.458 C 347.011 88.097,347.109 88.000,347.432 88.000 C 347.754 88.000,347.863 87.893,347.942 87.500 C 348.019 87.113,348.131 87.000,348.438 87.000 C 348.766 87.000,348.833 86.915,348.833 86.500 C 348.833 86.056,348.889 86.000,349.333 86.000 C 349.775 86.000,349.833 85.943,349.833 85.511 C 349.833 85.102,349.908 85.014,350.292 84.969 C 350.718 84.920,350.753 84.857,350.800 84.052 C 350.846 83.251,350.883 83.183,351.300 83.135 C 351.746 83.084,351.750 83.071,351.798 81.635 C 351.846 80.198,351.849 80.187,352.298 80.135 L 352.750 80.083 352.793 71.954 L 352.837 63.826 352.335 63.725 L 351.833 63.625 351.833 62.229 L 351.833 60.833 351.342 60.833 C 350.860 60.833,350.849 60.814,350.800 59.875 C 350.753 58.968,350.726 58.914,350.292 58.864 C 349.908 58.820,349.833 58.732,349.833 58.322 C 349.833 57.892,349.774 57.833,349.342 57.833 C 348.867 57.833,348.849 57.805,348.800 56.958 L 348.750 56.083 347.875 56.033 C 347.029 55.984,347.000 55.966,347.000 55.491 C 347.000 55.059,346.941 55.000,346.511 55.000 C 346.102 55.000,346.014 54.926,345.969 54.542 C 345.919 54.108,345.866 54.081,344.958 54.033 C 344.020 53.984,344.000 53.973,344.000 53.492 L 344.000 53.000 342.583 53.000 C 341.330 53.000,341.167 52.965,341.167 52.700 C 341.167 52.023,340.974 52.000,335.508 52.011 C 332.616 52.016,330.081 52.089,329.875 52.172 M251.667 71.500 L 251.667 90.000 252.083 90.000 C 252.412 90.000,252.500 90.085,252.500 90.399 C 252.500 90.966,252.695 91.000,255.917 91.000 C 259.118 91.000,259.333 90.963,259.333 90.420 C 259.333 90.133,259.454 90.018,259.833 89.942 L 260.333 89.842 260.333 77.265 L 260.333 64.689 260.792 64.636 C 261.226 64.586,261.253 64.532,261.300 63.625 C 261.349 62.686,261.360 62.667,261.842 62.667 C 262.251 62.667,262.333 62.599,262.333 62.262 C 262.333 61.896,262.422 61.846,263.250 61.743 C 264.073 61.640,264.167 61.588,264.167 61.231 L 264.167 60.833 268.261 60.833 C 272.474 60.833,273.000 60.760,273.000 60.172 C 273.000 59.951,273.138 59.840,273.458 59.803 L 273.917 59.750 273.962 56.605 C 273.994 54.426,273.949 53.389,273.817 53.230 C 273.662 53.044,272.651 53.000,268.480 53.000 L 263.333 53.000 263.333 53.500 L 263.333 54.000 262.333 54.000 L 261.333 54.000 261.333 54.500 C 261.333 54.989,261.315 55.000,260.495 55.000 C 259.781 55.000,259.634 55.056,259.505 55.375 C 259.396 55.646,259.352 55.368,259.344 54.375 L 259.333 53.000 255.500 53.000 L 251.667 53.000 251.667 71.500 M356.923 53.268 C 356.706 53.484,356.664 53.844,356.703 55.143 L 356.750 56.750 357.208 56.803 C 357.592 56.847,357.667 56.935,357.667 57.344 C 357.667 57.777,357.725 57.833,358.167 57.833 C 358.657 57.833,358.667 57.850,358.667 58.681 C 358.667 59.467,358.703 59.543,359.159 59.715 C 359.500 59.843,359.666 60.031,359.701 60.325 C 359.738 60.649,359.858 60.762,360.208 60.803 C 360.567 60.844,360.667 60.943,360.667 61.258 C 360.667 61.548,360.783 61.689,361.083 61.765 C 361.382 61.840,361.500 61.982,361.500 62.268 C 361.500 62.600,361.584 62.667,362.000 62.667 C 362.480 62.667,362.500 62.696,362.500 63.403 C 362.500 64.391,362.629 64.667,363.090 64.667 C 363.389 64.667,363.490 64.771,363.531 65.125 C 363.572 65.485,363.682 65.595,364.042 65.636 C 364.426 65.680,364.500 65.768,364.500 66.178 C 364.500 66.610,364.558 66.667,365.000 66.667 C 365.495 66.667,365.500 66.676,365.500 67.583 C 365.500 68.491,365.505 68.500,366.000 68.500 C 366.444 68.500,366.500 68.556,366.500 69.000 C 366.500 69.415,366.567 69.500,366.896 69.500 C 367.202 69.500,367.314 69.613,367.392 70.000 C 367.471 70.397,367.578 70.500,367.912 70.500 C 368.501 70.500,368.543 71.447,367.958 71.530 C 367.641 71.575,367.560 71.730,367.431 72.542 C 367.297 73.392,367.235 73.500,366.890 73.500 C 366.589 73.500,366.500 73.592,366.500 73.903 C 366.500 74.216,366.388 74.332,366.000 74.417 C 365.622 74.500,365.500 74.619,365.500 74.909 C 365.500 75.201,365.381 75.315,365.000 75.392 C 364.618 75.468,364.500 75.582,364.500 75.876 C 364.500 76.150,364.356 76.314,364.000 76.449 C 363.535 76.625,363.500 76.697,363.500 77.486 C 363.500 78.316,363.490 78.333,363.000 78.333 C 362.556 78.333,362.500 78.389,362.500 78.833 C 362.500 79.257,362.436 79.333,362.079 79.333 C 361.747 79.333,361.638 79.436,361.560 79.824 C 361.493 80.159,361.349 80.331,361.106 80.366 C 360.802 80.409,360.743 80.544,360.700 81.292 C 360.651 82.138,360.633 82.167,360.158 82.167 C 359.723 82.167,359.667 82.224,359.667 82.667 C 359.667 83.111,359.611 83.167,359.167 83.167 C 358.722 83.167,358.667 83.222,358.667 83.667 C 358.667 84.037,358.589 84.167,358.367 84.167 C 357.873 84.167,357.667 84.521,357.667 85.367 C 357.667 86.144,357.653 86.167,357.167 86.167 C 356.722 86.167,356.667 86.222,356.667 86.667 C 356.667 87.089,356.602 87.167,356.250 87.167 C 355.841 87.167,355.833 87.190,355.833 88.482 C 355.833 89.746,355.850 89.801,356.250 89.902 C 356.553 89.978,356.667 90.118,356.667 90.417 C 356.667 90.998,356.974 91.039,360.828 90.974 C 364.575 90.910,364.493 90.938,364.497 89.708 C 364.500 89.033,364.523 89.000,365.000 89.000 C 365.444 89.000,365.500 88.944,365.500 88.500 C 365.500 88.085,365.567 88.000,365.896 88.000 C 366.202 88.000,366.314 87.887,366.392 87.500 C 366.471 87.103,366.578 87.000,366.912 87.000 C 367.267 87.000,367.333 86.923,367.333 86.511 C 367.333 86.102,367.408 86.014,367.792 85.969 C 368.218 85.920,368.253 85.857,368.300 85.052 C 368.346 84.251,368.383 84.183,368.800 84.135 C 369.148 84.095,369.262 83.982,369.302 83.635 C 369.342 83.289,369.455 83.175,369.802 83.135 C 370.151 83.095,370.262 82.982,370.303 82.625 C 370.339 82.307,370.451 82.167,370.668 82.167 C 371.077 82.167,371.162 82.006,371.280 81.013 C 371.367 80.273,371.424 80.179,371.814 80.134 C 372.116 80.099,372.266 79.971,372.302 79.719 C 372.334 79.491,372.491 79.334,372.719 79.302 C 372.976 79.265,373.099 79.115,373.136 78.792 C 373.205 78.193,374.167 78.089,374.167 78.681 C 374.167 78.915,374.331 79.091,374.667 79.218 C 375.021 79.351,375.167 79.517,375.167 79.787 C 375.167 80.098,375.257 80.167,375.667 80.167 C 376.153 80.167,376.167 80.189,376.167 80.967 C 376.167 81.807,376.373 82.167,376.856 82.167 C 377.047 82.167,377.162 82.322,377.197 82.625 C 377.239 82.985,377.348 83.095,377.708 83.136 C 378.092 83.180,378.167 83.268,378.167 83.678 C 378.167 84.081,378.236 84.167,378.563 84.167 C 378.869 84.167,378.981 84.280,379.058 84.667 C 379.138 85.064,379.245 85.167,379.579 85.167 C 379.942 85.167,380.000 85.241,380.002 85.708 C 380.006 86.649,380.169 87.000,380.603 87.000 C 380.933 87.000,381.000 87.084,381.000 87.500 C 381.000 87.944,381.056 88.000,381.500 88.000 C 381.944 88.000,382.000 88.056,382.000 88.500 C 382.000 88.944,382.056 89.000,382.500 89.000 C 382.944 89.000,383.000 89.056,383.000 89.500 C 383.000 89.942,383.057 90.000,383.489 90.000 C 383.898 90.000,383.986 90.074,384.031 90.458 L 384.083 90.917 387.333 90.917 L 390.583 90.917 390.636 90.458 C 390.680 90.073,390.768 90.000,391.184 90.000 L 391.680 90.000 391.631 88.542 C 391.587 87.180,391.559 87.080,391.214 87.031 C 390.857 86.980,390.777 86.777,390.612 85.500 C 390.594 85.362,390.421 85.227,390.226 85.199 C 389.985 85.165,389.840 84.991,389.773 84.658 C 389.696 84.274,389.586 84.167,389.265 84.167 C 388.942 84.167,388.844 84.070,388.803 83.708 C 388.761 83.348,388.652 83.239,388.292 83.197 C 387.880 83.150,387.833 83.079,387.833 82.503 C 387.833 81.606,387.693 81.333,387.232 81.333 C 386.900 81.333,386.833 81.250,386.833 80.833 C 386.833 80.389,386.778 80.333,386.333 80.333 C 385.889 80.333,385.833 80.278,385.833 79.833 C 385.833 79.389,385.778 79.333,385.333 79.333 C 384.889 79.333,384.833 79.278,384.833 78.833 C 384.833 78.418,384.766 78.333,384.436 78.333 C 384.079 78.333,384.027 78.240,383.924 77.417 C 383.826 76.631,383.752 76.486,383.405 76.399 C 383.116 76.326,383.000 76.182,383.000 75.894 C 383.000 75.580,382.890 75.470,382.500 75.392 C 382.119 75.315,382.000 75.201,382.000 74.909 C 382.000 74.619,381.878 74.500,381.500 74.417 C 381.050 74.318,381.000 74.242,381.000 73.667 C 381.000 72.772,380.860 72.500,380.399 72.500 C 380.022 72.500,380.000 72.444,380.000 71.500 C 380.000 70.648,380.044 70.500,380.300 70.500 C 380.793 70.500,381.000 70.146,381.000 69.300 C 381.000 68.522,381.014 68.500,381.500 68.500 C 381.924 68.500,382.000 68.436,382.000 68.079 C 382.000 67.747,382.103 67.638,382.491 67.560 C 382.866 67.485,382.994 67.358,383.032 67.023 C 383.067 66.721,383.195 66.567,383.440 66.532 C 383.738 66.490,383.816 66.331,383.911 65.574 C 384.013 64.756,384.064 64.667,384.429 64.667 C 384.767 64.667,384.833 64.585,384.833 64.167 C 384.833 63.722,384.889 63.667,385.333 63.667 C 385.775 63.667,385.833 63.610,385.833 63.178 C 385.833 62.768,385.908 62.680,386.292 62.636 C 386.718 62.587,386.753 62.524,386.800 61.719 C 386.846 60.918,386.883 60.850,387.300 60.802 C 387.648 60.762,387.762 60.649,387.802 60.302 C 387.842 59.955,387.955 59.842,388.302 59.802 C 388.648 59.762,388.762 59.648,388.802 59.302 C 388.838 58.988,388.963 58.838,389.218 58.802 C 389.524 58.758,389.608 58.594,389.735 57.792 C 389.867 56.962,389.936 56.833,390.254 56.833 C 390.691 56.833,390.869 55.741,390.713 54.019 L 390.620 53.000 386.810 53.000 L 383.000 53.000 383.000 53.500 C 383.000 53.944,382.944 54.000,382.500 54.000 C 382.058 54.000,382.000 54.057,382.000 54.489 C 382.000 54.898,381.926 54.986,381.542 55.031 C 381.185 55.072,381.072 55.182,381.032 55.531 C 380.995 55.845,380.870 55.995,380.615 56.031 C 380.317 56.074,380.222 56.244,380.095 56.958 C 379.961 57.709,379.886 57.833,379.564 57.833 C 379.279 57.833,379.176 57.943,379.136 58.292 C 379.095 58.652,378.985 58.761,378.625 58.803 C 378.246 58.846,378.167 58.937,378.167 59.324 C 378.167 59.710,378.080 59.809,377.667 59.892 C 377.184 59.988,377.167 60.023,377.167 60.913 C 377.167 61.825,377.162 61.833,376.667 61.833 C 376.251 61.833,376.167 61.900,376.167 62.229 C 376.167 62.536,376.054 62.648,375.667 62.725 C 375.277 62.803,375.167 62.914,375.167 63.228 C 375.167 63.518,375.051 63.660,374.753 63.734 C 374.497 63.799,374.299 63.997,374.234 64.253 C 374.066 64.922,373.167 64.850,373.167 64.167 C 373.167 63.748,373.101 63.667,372.762 63.667 C 372.396 63.667,372.346 63.578,372.243 62.750 C 372.141 61.935,372.085 61.833,371.742 61.833 C 371.444 61.833,371.343 61.728,371.303 61.375 C 371.261 61.015,371.152 60.905,370.792 60.864 C 370.408 60.820,370.333 60.732,370.333 60.322 C 370.333 59.890,370.275 59.833,369.833 59.833 C 369.344 59.833,369.333 59.816,369.333 58.991 C 369.333 58.206,369.300 58.138,368.833 57.975 C 368.471 57.849,368.333 57.694,368.333 57.414 C 368.333 57.119,368.214 57.000,367.833 56.917 C 367.446 56.832,367.333 56.716,367.333 56.403 C 367.333 56.089,367.245 56.000,366.936 56.000 C 366.579 56.000,366.523 55.900,366.394 55.042 C 366.274 54.245,366.190 54.075,365.894 54.033 C 365.651 53.998,365.507 53.825,365.440 53.491 L 365.342 53.000 361.266 53.000 C 357.746 53.000,357.154 53.036,356.923 53.268 M191.333 59.232 C 191.333 59.692,191.606 59.833,192.496 59.833 C 193.025 59.833,193.147 59.899,193.230 60.229 C 193.329 60.625,193.857 60.833,194.762 60.833 C 195.112 60.833,195.154 60.918,195.200 61.708 C 195.247 62.524,195.281 62.587,195.708 62.636 C 196.092 62.680,196.167 62.768,196.167 63.178 C 196.167 63.586,196.234 63.667,196.576 63.667 C 197.032 63.667,197.132 63.984,197.208 65.667 C 197.245 66.475,197.294 66.590,197.625 66.637 C 197.961 66.684,198.000 66.783,198.000 67.595 L 198.000 68.500 189.250 68.500 L 180.500 68.500 180.500 67.120 L 180.500 65.740 181.000 65.551 C 181.499 65.363,181.500 65.359,181.500 64.014 L 181.500 62.667 182.000 62.667 C 182.418 62.667,182.500 62.600,182.500 62.263 C 182.500 61.951,182.612 61.835,183.000 61.750 C 183.388 61.665,183.500 61.549,183.500 61.237 C 183.500 60.921,183.588 60.833,183.903 60.833 C 184.215 60.833,184.332 60.721,184.415 60.342 C 184.516 59.883,184.581 59.847,185.386 59.800 C 186.190 59.753,186.254 59.718,186.303 59.292 L 186.355 58.833 188.844 58.833 L 191.333 58.833 191.333 59.232 M337.250 59.333 L 337.360 59.833 338.752 59.833 L 340.145 59.833 340.197 60.292 C 340.239 60.652,340.348 60.761,340.708 60.803 C 341.064 60.844,341.167 60.944,341.167 61.250 C 341.167 61.556,341.269 61.656,341.625 61.697 C 341.985 61.739,342.095 61.848,342.136 62.208 C 342.177 62.568,342.276 62.667,342.594 62.667 C 342.952 62.667,343.000 62.741,343.002 63.292 C 343.006 64.316,343.159 64.667,343.603 64.667 C 343.999 64.667,344.000 64.671,344.000 66.656 C 344.000 68.868,344.148 69.500,344.667 69.500 C 344.998 69.500,345.007 69.576,344.963 71.951 L 344.917 74.402 344.500 74.500 L 344.083 74.598 344.037 76.955 L 343.991 79.312 343.537 79.364 C 343.185 79.405,343.072 79.517,343.032 79.865 C 342.995 80.178,342.870 80.328,342.615 80.365 C 342.300 80.410,342.243 80.537,342.200 81.292 C 342.151 82.138,342.133 82.167,341.658 82.167 C 341.225 82.167,341.167 82.225,341.167 82.658 C 341.167 83.140,341.147 83.151,340.208 83.200 C 339.301 83.247,339.247 83.274,339.197 83.708 L 339.145 84.167 335.739 84.167 L 332.333 84.167 332.333 83.667 L 332.333 83.167 331.333 83.167 L 330.333 83.167 330.333 82.667 C 330.333 82.251,330.266 82.167,329.938 82.167 C 329.631 82.167,329.519 82.054,329.442 81.667 C 329.362 81.270,329.255 81.167,328.921 81.167 C 328.542 81.167,328.500 81.101,328.500 80.514 C 328.500 79.608,328.362 79.333,327.905 79.333 C 327.527 79.333,327.511 79.282,327.465 77.875 C 327.417 76.422,327.415 76.416,326.958 76.364 L 326.500 76.311 326.500 71.917 L 326.500 67.522 326.958 67.469 C 327.412 67.417,327.417 67.404,327.465 66.042 C 327.509 64.798,327.545 64.667,327.844 64.667 C 328.231 64.667,328.500 64.080,328.500 63.239 C 328.500 62.738,328.553 62.667,328.921 62.667 C 329.255 62.667,329.362 62.564,329.442 62.167 C 329.519 61.780,329.631 61.667,329.938 61.667 C 330.246 61.667,330.333 61.577,330.333 61.261 C 330.333 60.942,330.432 60.844,330.792 60.803 C 331.152 60.761,331.261 60.652,331.303 60.292 C 331.355 59.836,331.362 59.833,332.644 59.833 C 333.975 59.833,334.333 59.685,334.333 59.133 C 334.333 58.868,334.496 58.833,335.737 58.833 L 337.140 58.833 337.250 59.333 M299.333 60.232 C 299.333 60.695,299.605 60.833,300.514 60.833 C 301.093 60.833,301.167 60.879,301.167 61.237 C 301.167 61.549,301.279 61.665,301.667 61.750 C 302.106 61.846,302.167 61.931,302.167 62.441 C 302.167 63.187,302.427 63.667,302.831 63.667 C 303.103 63.667,303.157 63.809,303.200 64.625 C 303.247 65.532,303.274 65.586,303.708 65.636 L 304.167 65.689 304.167 72.011 L 304.167 78.333 303.667 78.333 L 303.167 78.333 303.167 79.333 L 303.167 80.333 302.667 80.333 C 302.222 80.333,302.167 80.389,302.167 80.833 C 302.167 81.256,302.102 81.333,301.750 81.333 C 301.417 81.333,301.333 81.417,301.333 81.750 C 301.333 82.102,301.256 82.167,300.833 82.167 C 300.391 82.167,300.333 82.223,300.333 82.658 C 300.333 83.140,300.314 83.151,299.375 83.200 C 298.468 83.247,298.414 83.274,298.364 83.708 L 298.311 84.167 295.833 84.167 L 293.355 84.167 293.303 83.708 C 293.254 83.281,293.191 83.247,292.375 83.200 C 291.768 83.165,291.500 83.079,291.500 82.920 C 291.500 82.475,290.987 82.167,290.247 82.167 L 289.517 82.167 289.467 81.292 C 289.420 80.476,289.386 80.413,288.958 80.364 C 288.574 80.320,288.500 80.232,288.500 79.822 C 288.500 79.412,288.433 79.333,288.083 79.333 C 287.713 79.333,287.667 79.264,287.665 78.708 C 287.661 77.067,287.475 76.333,287.060 76.333 L 286.667 76.333 286.667 71.500 C 286.667 66.753,286.673 66.667,287.005 66.667 C 287.386 66.667,287.432 66.569,287.579 65.474 C 287.665 64.831,287.752 64.681,288.091 64.596 C 288.463 64.503,288.500 64.411,288.500 63.580 C 288.500 62.676,288.505 62.667,289.000 62.667 C 289.418 62.667,289.500 62.600,289.500 62.263 C 289.500 61.951,289.612 61.835,290.000 61.750 C 290.388 61.665,290.500 61.549,290.500 61.237 C 290.500 60.923,290.588 60.833,290.896 60.833 C 291.732 60.833,292.333 60.627,292.333 60.340 C 292.333 59.852,292.469 59.833,295.944 59.833 L 299.333 59.833 299.333 60.232 M235.000 74.822 C 235.000 76.230,234.980 76.313,234.632 76.363 C 234.184 76.428,234.039 76.883,234.017 78.292 C 234.001 79.287,233.982 79.333,233.583 79.333 C 233.190 79.333,233.167 79.384,233.167 80.239 C 233.167 81.103,233.146 81.147,232.708 81.197 C 232.348 81.239,232.239 81.348,232.197 81.708 C 232.153 82.092,232.065 82.167,231.656 82.167 C 231.225 82.167,231.167 82.226,231.167 82.658 C 231.167 83.140,231.147 83.151,230.208 83.200 C 229.301 83.247,229.247 83.274,229.197 83.708 L 229.145 84.167 225.239 84.167 L 221.333 84.167 221.333 83.667 C 221.333 83.249,221.267 83.167,220.930 83.167 C 220.617 83.167,220.502 83.054,220.417 82.667 C 220.332 82.279,220.216 82.167,219.903 82.167 C 219.583 82.167,219.500 82.080,219.500 81.746 C 219.500 81.412,219.397 81.304,219.000 81.225 L 218.500 81.125 218.500 79.740 L 218.500 78.355 218.958 78.303 C 219.314 78.262,219.428 78.151,219.468 77.807 C 219.504 77.499,219.643 77.334,219.926 77.262 C 220.221 77.188,220.333 77.046,220.333 76.747 C 220.333 76.399,220.412 76.333,220.833 76.333 C 221.278 76.333,221.333 76.278,221.333 75.833 L 221.333 75.333 222.754 75.333 L 224.175 75.333 224.275 74.833 L 224.375 74.333 226.271 74.333 L 228.167 74.333 228.167 73.920 L 228.167 73.507 231.375 73.458 C 233.140 73.431,234.677 73.392,234.792 73.371 C 234.946 73.343,235.000 73.722,235.000 74.822 " stroke="none" fill="#fcfcfc" fill-rule="evenodd"></path><path id="path1" d="M35.871 24.970 C 35.754 25.046,35.612 25.493,35.557 25.962 C 35.466 26.728,35.411 26.821,35.020 26.866 C 34.593 26.916,34.582 26.947,34.535 28.292 C 34.489 29.605,34.469 29.667,34.100 29.667 C 33.166 29.667,33.226 41.344,34.163 41.979 C 34.429 42.159,34.504 42.404,34.520 43.145 C 34.550 44.600,34.695 45.075,35.126 45.137 C 35.477 45.187,35.500 45.270,35.500 46.478 C 35.500 47.805,35.649 48.167,36.195 48.167 C 36.462 48.167,36.495 48.397,36.537 50.542 L 36.583 52.917 37.042 52.969 L 37.500 53.022 37.500 55.011 C 37.500 56.998,37.500 57.000,37.101 57.000 C 36.551 57.000,36.500 57.225,36.500 59.680 L 36.500 61.833 36.000 61.833 C 35.506 61.833,35.500 61.844,35.500 62.739 C 35.500 63.603,35.479 63.647,35.042 63.697 C 34.685 63.738,34.572 63.849,34.532 64.198 C 34.495 64.512,34.370 64.662,34.115 64.698 C 33.859 64.734,33.734 64.884,33.698 65.198 C 33.658 65.545,33.545 65.658,33.198 65.698 C 32.849 65.739,32.738 65.851,32.697 66.208 C 32.653 66.592,32.565 66.667,32.156 66.667 C 31.725 66.667,31.667 66.726,31.667 67.158 C 31.667 67.640,31.647 67.651,30.708 67.700 C 29.859 67.744,29.744 67.793,29.697 68.125 C 29.610 68.739,26.920 68.700,26.765 68.083 C 26.689 67.783,26.548 67.667,26.258 67.667 C 25.943 67.667,25.844 67.567,25.803 67.208 C 25.761 66.848,25.652 66.739,25.292 66.697 L 24.833 66.645 24.833 62.250 L 24.833 57.855 25.292 57.803 C 25.726 57.753,25.753 57.699,25.800 56.792 C 25.846 55.913,25.882 55.833,26.239 55.833 C 26.595 55.833,26.638 55.741,26.745 54.739 C 26.818 54.053,26.948 53.612,27.091 53.557 C 27.463 53.415,27.532 52.900,27.266 52.262 C 27.033 51.704,26.631 51.486,26.431 51.810 C 26.383 51.888,25.917 51.996,25.395 52.050 C 24.272 52.166,24.006 52.388,23.882 53.310 C 23.812 53.834,23.716 54.000,23.484 54.000 C 23.077 54.000,22.833 54.495,22.833 55.322 C 22.833 55.926,22.790 56.000,22.434 56.000 C 21.973 56.000,21.833 56.272,21.833 57.169 C 21.833 57.707,21.773 57.819,21.458 57.863 C 21.126 57.911,21.078 58.026,21.033 58.875 C 20.984 59.814,20.973 59.833,20.492 59.833 C 20.002 59.833,20.000 59.837,20.000 60.833 L 20.000 61.833 19.500 61.833 C 19.001 61.833,19.000 61.835,19.000 62.814 C 19.000 63.652,18.952 63.807,18.669 63.881 C 18.187 64.007,18.000 64.671,18.000 66.250 L 18.000 67.645 17.542 67.697 L 17.083 67.750 17.038 71.068 C 16.993 74.358,16.989 74.388,16.580 74.768 C 15.944 75.357,15.947 78.880,16.583 79.636 C 16.988 80.117,17.000 80.206,17.002 82.691 C 17.005 85.696,17.060 86.000,17.596 86.000 C 17.973 86.000,17.989 86.053,18.035 87.458 C 18.083 88.912,18.085 88.917,18.542 88.969 C 18.981 89.020,19.000 89.061,19.002 89.969 C 19.005 91.255,19.137 91.653,19.595 91.768 C 19.937 91.854,19.990 91.979,20.034 92.808 C 20.081 93.698,20.109 93.753,20.542 93.803 C 20.944 93.849,21.000 93.927,21.000 94.435 C 21.000 94.832,21.132 95.147,21.417 95.432 C 21.646 95.661,21.833 95.980,21.833 96.141 C 21.833 96.506,22.149 96.833,22.501 96.833 C 22.681 96.833,22.821 97.067,22.926 97.542 C 23.032 98.019,23.203 98.303,23.450 98.411 C 23.691 98.517,23.835 98.746,23.867 99.078 C 23.908 99.490,24.001 99.593,24.375 99.636 C 24.759 99.680,24.833 99.768,24.833 100.178 C 24.833 100.610,24.891 100.667,25.333 100.667 C 25.778 100.667,25.833 100.722,25.833 101.167 C 25.833 101.609,25.890 101.667,26.322 101.667 C 26.732 101.667,26.820 101.741,26.864 102.125 C 26.901 102.446,27.024 102.599,27.276 102.635 C 27.495 102.666,27.675 102.845,27.738 103.093 C 27.811 103.384,27.954 103.500,28.242 103.500 C 28.557 103.500,28.656 103.599,28.697 103.958 C 28.738 104.313,28.850 104.428,29.189 104.468 C 29.525 104.506,29.652 104.634,29.727 105.009 C 29.821 105.481,29.860 105.500,30.746 105.500 C 31.658 105.500,31.667 105.505,31.667 106.000 C 31.667 106.442,31.723 106.500,32.156 106.500 C 32.565 106.500,32.653 106.574,32.697 106.958 C 32.749 107.404,32.783 107.418,33.910 107.467 C 34.548 107.494,35.170 107.601,35.294 107.703 C 35.598 107.956,36.123 107.425,36.264 106.723 C 36.352 106.280,36.301 106.153,35.934 105.913 L 35.500 105.628 35.500 103.084 C 35.500 100.684,35.519 100.534,35.831 100.452 C 36.267 100.338,36.500 99.687,36.500 98.584 C 36.500 97.731,36.522 97.686,36.958 97.636 C 37.385 97.587,37.420 97.524,37.467 96.719 C 37.513 95.918,37.550 95.850,37.967 95.802 C 38.318 95.761,38.428 95.649,38.469 95.292 C 38.511 94.932,38.609 94.833,38.928 94.833 C 39.267 94.833,39.333 94.752,39.333 94.333 C 39.333 93.889,39.389 93.833,39.833 93.833 C 40.278 93.833,40.333 93.778,40.333 93.333 C 40.333 92.889,40.389 92.833,40.833 92.833 C 41.278 92.833,41.333 92.778,41.333 92.333 C 41.333 91.889,41.389 91.833,41.833 91.833 C 42.252 91.833,42.333 91.767,42.333 91.428 C 42.333 91.109,42.432 91.011,42.792 90.969 C 43.149 90.928,43.261 90.818,43.302 90.468 C 43.342 90.122,43.455 90.008,43.802 89.968 C 44.146 89.929,44.262 89.814,44.301 89.476 C 44.345 89.092,44.450 89.020,45.102 88.923 C 45.674 88.837,45.895 88.714,46.036 88.405 C 46.137 88.182,46.343 88.000,46.493 88.000 C 46.853 88.000,47.167 87.674,47.167 87.300 C 47.167 87.090,47.293 87.000,47.587 87.000 C 47.920 87.000,48.029 86.897,48.107 86.509 C 48.173 86.175,48.318 86.002,48.561 85.967 C 48.848 85.926,48.947 85.748,49.072 85.042 C 49.216 84.230,49.261 84.167,49.697 84.167 C 50.108 84.167,50.167 84.104,50.167 83.667 C 50.167 83.249,50.233 83.167,50.570 83.167 C 50.881 83.167,50.998 83.054,51.081 82.677 C 51.154 82.343,51.305 82.170,51.553 82.135 C 51.872 82.090,51.923 81.965,51.967 81.125 C 52.016 80.186,52.027 80.167,52.508 80.167 C 52.992 80.167,53.000 80.152,53.000 79.271 C 53.000 78.409,53.019 78.371,53.500 78.275 L 54.000 78.175 54.000 76.750 C 54.000 75.406,54.022 75.317,54.393 75.176 C 54.920 74.975,55.000 74.481,55.000 71.427 L 55.000 68.896 54.506 68.531 C 54.021 68.172,54.011 68.134,53.964 66.458 L 53.917 64.750 53.465 64.698 C 53.019 64.646,53.012 64.627,52.965 63.281 C 52.917 61.930,52.912 61.916,52.458 61.864 C 52.016 61.813,52.000 61.777,52.000 60.822 C 52.000 59.886,51.978 59.833,51.595 59.833 C 51.230 59.833,51.180 59.745,51.076 58.915 C 50.978 58.132,50.902 57.982,50.564 57.897 C 50.292 57.829,50.167 57.678,50.167 57.419 C 50.167 56.470,49.967 56.000,49.563 56.000 C 49.234 56.000,49.167 55.915,49.167 55.500 C 49.167 55.057,49.110 55.000,48.675 55.000 C 48.193 55.000,48.182 54.980,48.133 54.042 C 48.086 53.134,48.059 53.081,47.625 53.031 C 47.222 52.984,47.167 52.907,47.167 52.395 C 47.167 51.642,46.907 51.167,46.494 51.167 C 46.241 51.167,46.167 51.053,46.167 50.667 C 46.167 50.247,46.101 50.167,45.758 50.167 C 45.340 50.167,45.273 50.005,45.128 48.667 C 45.098 48.383,44.967 48.233,44.718 48.198 C 44.463 48.162,44.338 48.012,44.302 47.698 C 44.261 47.349,44.149 47.238,43.792 47.197 C 43.355 47.147,43.333 47.102,43.333 46.252 C 43.333 45.396,43.313 45.355,42.833 45.250 C 42.374 45.149,42.333 45.083,42.333 44.437 C 42.333 43.681,42.113 43.333,41.633 43.333 C 41.384 43.333,41.333 43.191,41.333 42.486 C 41.333 41.699,41.297 41.624,40.841 41.452 C 40.396 41.284,40.344 41.184,40.299 40.425 C 40.254 39.645,40.216 39.579,39.792 39.531 C 39.349 39.480,39.333 39.444,39.333 38.489 C 39.333 37.545,39.314 37.500,38.917 37.500 C 38.507 37.500,38.500 37.475,38.480 36.125 C 38.453 34.238,38.334 33.762,37.874 33.697 C 37.502 33.644,37.500 33.625,37.500 30.655 L 37.500 27.667 37.909 27.667 C 38.420 27.667,38.609 26.900,38.392 25.710 L 38.248 24.917 37.166 24.874 C 36.570 24.850,35.988 24.893,35.871 24.970 M84.644 87.340 C 84.225 87.811,84.206 87.969,84.600 87.706 C 84.769 87.593,85.240 86.825,85.131 86.840 C 85.105 86.843,84.886 87.068,84.644 87.340 " stroke="none" fill="#f47404" fill-rule="evenodd"></path><path id="path2" d="M51.167 0.750 C 51.167 1.472,51.148 1.500,50.667 1.500 C 50.222 1.500,50.167 1.556,50.167 2.000 C 50.167 2.444,50.111 2.500,49.667 2.500 C 49.222 2.500,49.167 2.556,49.167 3.000 C 49.167 3.386,49.092 3.500,48.839 3.500 C 48.427 3.500,48.167 3.975,48.167 4.728 C 48.167 5.240,48.111 5.318,47.708 5.364 C 47.355 5.405,47.238 5.516,47.199 5.852 C 47.168 6.120,46.994 6.358,46.748 6.471 C 46.430 6.616,46.324 6.826,46.236 7.484 C 46.146 8.163,46.061 8.325,45.771 8.366 C 45.470 8.409,45.409 8.545,45.367 9.272 C 45.321 10.072,45.285 10.135,44.825 10.227 C 44.352 10.321,44.333 10.359,44.333 11.246 C 44.333 12.036,44.289 12.167,44.020 12.167 C 43.508 12.167,43.352 12.530,43.300 13.841 C 43.261 14.800,43.193 15.088,43.000 15.106 C 42.862 15.118,42.656 15.137,42.542 15.147 C 42.403 15.160,42.333 15.471,42.333 16.080 C 42.333 16.906,42.295 17.003,41.932 17.094 C 41.441 17.218,41.339 17.569,41.336 19.135 C 41.334 19.805,41.267 20.312,41.186 20.262 C 41.104 20.211,40.945 20.282,40.832 20.419 C 40.719 20.555,40.691 20.668,40.771 20.669 C 40.851 20.671,40.804 20.743,40.667 20.830 C 40.468 20.955,40.405 21.480,40.360 23.391 C 40.304 25.749,40.295 25.797,39.898 25.978 L 39.492 26.163 39.538 29.206 C 39.582 32.182,39.592 32.254,39.958 32.415 C 40.310 32.569,40.334 32.682,40.343 34.248 C 40.356 36.554,40.492 37.236,40.953 37.302 C 41.272 37.348,41.324 37.473,41.367 38.302 C 41.414 39.194,41.443 39.253,41.867 39.302 C 42.291 39.351,42.320 39.410,42.367 40.302 C 42.414 41.198,42.442 41.253,42.875 41.303 C 43.307 41.352,43.333 41.404,43.333 42.186 C 43.333 42.960,43.368 43.029,43.833 43.192 C 44.202 43.320,44.333 43.471,44.333 43.766 C 44.333 44.098,44.417 44.167,44.825 44.167 C 45.300 44.167,45.318 44.195,45.366 45.042 C 45.407 45.752,45.485 45.946,45.778 46.075 C 45.977 46.163,46.180 46.442,46.232 46.700 C 46.304 47.063,46.418 47.167,46.746 47.167 C 47.081 47.167,47.167 47.250,47.167 47.572 C 47.167 48.220,47.476 48.858,47.835 48.952 C 48.069 49.013,48.167 49.180,48.167 49.519 C 48.167 49.937,48.229 50.000,48.645 50.000 C 49.094 50.000,49.131 50.052,49.235 50.840 C 49.326 51.527,49.421 51.708,49.757 51.836 C 50.068 51.954,50.167 52.114,50.167 52.496 C 50.167 52.945,50.221 53.000,50.667 53.000 C 51.162 53.000,51.167 53.009,51.167 53.917 C 51.167 54.726,51.206 54.833,51.504 54.833 C 51.869 54.833,52.167 55.401,52.167 56.098 C 52.167 56.370,52.303 56.569,52.574 56.693 C 52.827 56.808,53.001 57.044,53.033 57.314 C 53.072 57.650,53.188 57.762,53.542 57.803 C 53.971 57.852,54.000 57.907,54.000 58.657 C 54.000 59.967,54.161 60.492,54.597 60.602 C 54.937 60.687,54.990 60.814,55.034 61.641 C 55.081 62.531,55.109 62.586,55.542 62.636 C 55.999 62.689,56.000 62.691,56.000 64.026 C 56.000 65.358,56.002 65.363,56.500 65.551 L 57.000 65.740 57.020 68.495 C 57.031 70.010,57.044 71.438,57.049 71.667 C 57.054 71.896,57.044 73.263,57.029 74.705 L 57.000 77.327 56.589 77.430 C 56.215 77.524,55.949 77.914,56.014 78.274 C 56.200 79.315,55.975 80.314,55.542 80.364 C 55.114 80.413,55.080 80.476,55.033 81.292 C 54.993 81.994,54.925 82.167,54.691 82.167 C 54.208 82.167,54.000 82.525,54.000 83.356 C 54.000 84.092,53.970 84.148,53.542 84.197 C 53.182 84.239,53.072 84.348,53.031 84.708 C 52.990 85.064,52.890 85.167,52.583 85.167 C 52.278 85.167,52.177 85.269,52.136 85.618 C 52.098 85.942,51.965 86.098,51.667 86.167 C 51.368 86.236,51.235 86.392,51.197 86.715 C 51.168 86.963,51.077 87.167,50.994 87.167 C 50.911 87.167,50.882 87.267,50.929 87.390 C 50.977 87.513,50.881 87.719,50.716 87.848 C 50.442 88.063,50.436 88.058,50.649 87.788 C 50.776 87.625,50.831 87.443,50.771 87.382 C 50.570 87.181,50.308 87.618,50.215 88.313 C 50.131 88.937,50.079 89.000,49.645 89.000 C 49.225 89.000,49.167 89.061,49.167 89.500 C 49.167 89.944,49.111 90.000,48.667 90.000 C 48.222 90.000,48.167 90.056,48.167 90.500 C 48.167 90.944,48.111 91.000,47.667 91.000 C 47.225 91.000,47.167 91.057,47.167 91.489 C 47.167 91.898,47.092 91.986,46.708 92.031 C 46.385 92.068,46.235 92.190,46.198 92.448 C 46.166 92.675,46.009 92.832,45.781 92.865 C 45.526 92.901,45.401 93.051,45.365 93.365 C 45.325 93.711,45.211 93.825,44.865 93.865 C 44.518 93.905,44.405 94.018,44.365 94.365 C 44.325 94.711,44.211 94.825,43.865 94.865 C 43.516 94.905,43.405 95.018,43.364 95.375 C 43.329 95.678,43.214 95.833,43.022 95.833 C 42.542 95.833,42.333 96.193,42.333 97.022 C 42.333 97.759,42.303 97.815,41.875 97.864 C 41.518 97.905,41.405 98.016,41.365 98.365 C 41.329 98.678,41.204 98.828,40.948 98.865 C 40.643 98.908,40.559 99.073,40.432 99.872 C 40.325 100.544,40.194 100.855,39.991 100.919 C 39.545 101.061,39.505 101.462,39.502 105.842 C 39.500 110.437,39.472 110.333,40.700 110.333 C 41.433 110.333,41.500 110.367,41.500 110.732 C 41.500 111.283,41.725 111.333,44.180 111.333 C 46.209 111.333,46.333 111.352,46.333 111.661 C 46.333 112.265,46.837 112.333,51.281 112.333 C 55.719 112.332,56.667 112.186,56.667 111.502 C 56.667 111.397,57.426 111.333,58.671 111.333 L 60.675 111.333 60.775 110.833 L 60.875 110.333 62.271 110.333 L 63.667 110.333 63.667 109.833 L 63.667 109.333 64.667 109.333 C 65.622 109.333,65.667 109.315,65.667 108.917 C 65.667 108.535,65.729 108.500,66.403 108.500 C 67.396 108.500,67.667 108.371,67.667 107.899 C 67.667 107.527,67.728 107.500,68.583 107.500 C 69.491 107.500,69.500 107.495,69.500 107.000 C 69.500 106.513,69.521 106.500,70.313 106.500 C 71.167 106.500,71.615 106.207,71.444 105.762 C 71.377 105.587,71.498 105.506,71.884 105.468 C 72.326 105.425,72.426 105.338,72.469 104.958 C 72.514 104.574,72.602 104.500,73.011 104.500 C 73.443 104.500,73.500 104.442,73.500 104.000 C 73.500 103.556,73.556 103.500,74.000 103.500 C 74.418 103.500,74.500 103.434,74.500 103.095 C 74.500 102.804,74.604 102.675,74.868 102.637 C 75.101 102.603,75.272 102.430,75.333 102.167 C 75.402 101.868,75.558 101.735,75.882 101.697 C 76.258 101.653,76.333 101.563,76.333 101.156 C 76.333 100.723,76.391 100.667,76.833 100.667 C 77.278 100.667,77.333 100.611,77.333 100.167 C 77.333 99.722,77.389 99.667,77.833 99.667 C 78.278 99.667,78.333 99.611,78.333 99.167 C 78.333 98.722,78.389 98.667,78.833 98.667 C 79.278 98.667,79.333 98.611,79.333 98.167 C 79.333 97.751,79.400 97.667,79.729 97.667 C 80.136 97.667,80.333 97.197,80.333 96.229 C 80.333 95.923,80.423 95.833,80.731 95.833 C 81.054 95.833,81.150 95.723,81.239 95.250 C 81.303 94.909,81.447 94.667,81.585 94.667 C 81.917 94.667,82.167 94.130,82.167 93.415 C 82.167 92.962,82.294 92.680,82.667 92.308 C 83.098 91.877,83.167 91.685,83.167 90.915 C 83.167 90.065,83.189 90.020,83.625 89.969 C 84.066 89.919,84.085 89.876,84.134 88.843 C 84.173 88.005,84.255 87.719,84.509 87.542 C 84.687 87.417,84.833 87.206,84.833 87.074 C 84.833 86.942,84.908 86.833,85.000 86.833 C 85.101 86.833,85.167 86.117,85.167 85.018 C 85.167 83.247,85.176 83.200,85.562 83.104 C 85.838 83.034,85.989 82.847,86.062 82.481 C 86.208 81.752,86.194 72.749,86.047 72.602 C 85.981 72.536,85.924 72.317,85.922 72.116 C 85.918 71.872,85.820 71.758,85.627 71.773 C 85.467 71.785,85.378 71.729,85.428 71.648 C 85.479 71.567,85.443 71.500,85.349 71.500 C 85.245 71.500,85.159 70.765,85.130 69.625 L 85.083 67.750 84.625 67.697 L 84.167 67.645 84.167 66.235 L 84.167 64.825 83.667 64.725 C 83.187 64.629,83.167 64.590,83.167 63.742 C 83.167 62.900,83.144 62.855,82.674 62.752 C 82.189 62.645,82.180 62.622,82.132 61.447 C 82.089 60.390,82.040 60.231,81.708 60.085 C 81.496 59.992,81.333 59.774,81.333 59.581 C 81.333 59.212,80.903 58.498,80.552 58.283 C 80.432 58.210,80.333 57.922,80.333 57.644 C 80.333 57.235,80.238 57.102,79.833 56.949 C 79.415 56.791,79.333 56.669,79.333 56.203 C 79.333 55.473,79.069 55.000,78.661 55.000 C 78.408 55.000,78.333 54.886,78.333 54.500 C 78.333 54.056,78.278 54.000,77.833 54.000 C 77.423 54.000,77.333 53.931,77.333 53.617 C 77.333 53.406,77.240 53.132,77.125 53.009 C 76.963 52.835,76.963 52.810,77.123 52.901 C 77.276 52.987,77.293 52.919,77.188 52.633 C 77.110 52.423,76.886 52.226,76.690 52.197 C 76.423 52.157,76.333 52.026,76.333 51.676 C 76.333 51.290,76.246 51.191,75.833 51.108 C 75.436 51.029,75.333 50.922,75.333 50.587 C 75.333 50.253,75.250 50.167,74.928 50.167 C 74.609 50.167,74.511 50.068,74.469 49.708 C 74.428 49.348,74.318 49.239,73.958 49.197 C 73.602 49.156,73.500 49.057,73.500 48.750 C 73.500 48.119,73.189 47.475,72.841 47.384 C 72.645 47.332,72.499 47.127,72.468 46.858 C 72.440 46.615,72.342 46.415,72.250 46.412 C 71.919 46.404,71.536 46.076,71.475 45.750 C 71.435 45.530,71.258 45.399,70.957 45.364 C 70.575 45.320,70.500 45.231,70.500 44.822 C 70.500 44.390,70.442 44.333,70.000 44.333 C 69.556 44.333,69.500 44.278,69.500 43.833 C 69.500 43.410,69.436 43.333,69.079 43.333 C 68.745 43.333,68.638 43.230,68.558 42.833 C 68.483 42.456,68.367 42.333,68.083 42.333 C 67.800 42.333,67.684 42.211,67.608 41.833 C 67.529 41.436,67.422 41.333,67.087 41.333 C 66.772 41.333,66.667 41.246,66.667 40.986 C 66.667 40.753,66.503 40.576,66.174 40.452 C 65.886 40.343,65.661 40.124,65.632 39.926 C 65.599 39.695,65.424 39.558,65.087 39.500 C 64.692 39.432,64.589 39.329,64.587 38.999 C 64.584 38.668,64.488 38.572,64.115 38.530 C 63.857 38.500,63.437 38.256,63.180 37.988 C 62.901 37.695,62.542 37.500,62.285 37.500 C 61.940 37.500,61.845 37.409,61.803 37.042 C 61.761 36.682,61.652 36.572,61.292 36.531 C 60.911 36.487,60.833 36.397,60.833 36.002 C 60.833 35.698,60.658 35.350,60.349 35.041 C 60.082 34.774,59.838 34.375,59.807 34.153 C 59.765 33.855,59.631 33.736,59.292 33.697 C 58.908 33.653,58.833 33.565,58.833 33.156 C 58.833 32.723,58.775 32.667,58.333 32.667 C 57.889 32.667,57.833 32.611,57.833 32.167 C 57.833 31.749,57.767 31.667,57.430 31.667 C 57.117 31.667,57.002 31.554,56.917 31.167 C 56.833 30.784,56.715 30.667,56.414 30.667 C 56.110 30.667,56.010 30.564,55.969 30.208 C 55.928 29.848,55.818 29.739,55.458 29.697 C 55.027 29.648,55.000 29.596,55.000 28.814 C 55.000 28.040,54.965 27.971,54.500 27.808 C 54.132 27.680,54.000 27.529,54.000 27.234 C 54.000 26.900,53.917 26.833,53.500 26.833 L 53.000 26.833 53.000 25.833 C 53.000 24.837,52.998 24.833,52.508 24.833 C 52.027 24.833,52.016 24.814,51.967 23.875 C 51.924 23.049,51.868 22.910,51.568 22.867 C 51.263 22.823,51.202 22.651,51.068 21.450 C 50.931 20.214,50.881 20.078,50.542 20.030 L 50.167 19.977 50.167 14.572 L 50.167 9.167 50.561 9.167 C 50.981 9.167,51.167 8.498,51.167 6.988 C 51.167 6.460,51.228 6.348,51.542 6.303 C 51.873 6.256,51.922 6.140,51.966 5.302 C 52.013 4.410,52.043 4.351,52.466 4.302 C 52.883 4.254,52.923 4.181,53.000 3.333 C 53.077 2.481,53.116 2.413,53.542 2.364 C 53.935 2.319,54.000 2.236,54.000 1.779 C 54.000 1.427,54.113 1.176,54.333 1.039 C 54.541 0.909,54.663 0.658,54.656 0.374 C 54.646 -0.051,54.635 -0.058,54.501 0.275 C 54.277 0.829,54.000 0.913,54.000 0.427 C 54.000 0.002,53.992 0.000,52.583 0.000 L 51.167 0.000 51.167 0.750 M72.935 47.954 C 72.758 48.131,72.612 48.061,72.571 47.782 C 72.535 47.538,72.572 47.519,72.767 47.681 C 72.900 47.791,72.975 47.914,72.935 47.954 " stroke="none" fill="#e43494" fill-rule="evenodd"></path><path id="path3" d="" stroke="none" fill="#f0c8100" fill-rule="evenodd"></path><path id="path4" d="" stroke="none" fill="#f0c8100" fill-rule="evenodd"></path></g></svg>