<svg width="156" height="22" viewBox="0 0 156 22" fill="none" xmlns="http://www.w3.org/2000/svg" style="cursor: pointer;"><path d="M16.1426 0.411997V21.5605H12.0042V12.799H4.16583V21.5605H0V0.411997H4.16583V8.8165H12.0042V0.411997H16.1426Z" fill="#FFC328"></path><path d="M84.0024 10.9862C84.0024 14.0807 82.9427 16.6899 80.8232 18.8139C78.6855 20.938 76.091 22 73.0397 22C71.4135 22 69.9153 21.6978 68.5449 21.0936C68.8555 20.819 69.157 20.5351 69.4493 20.2421C70.1802 19.4548 70.8014 18.6125 71.313 17.7153C71.8612 17.8435 72.4367 17.9076 73.0397 17.9076C74.9581 17.9076 76.5751 17.2576 77.8907 15.9575C79.1879 14.6758 79.8366 13.0187 79.8366 10.9862C79.8366 8.9721 79.1879 7.31505 77.8907 6.01501C76.5751 4.69666 74.9581 4.03743 73.0397 4.03743C72.4367 4.03743 71.8612 4.11069 71.313 4.25717C70.8014 3.35996 70.1802 2.52688 69.4493 1.75784C69.157 1.46487 68.8555 1.18103 68.5449 0.906379C69.9153 0.302135 71.4135 0 73.0397 0C76.091 0 78.6855 1.06203 80.8232 3.18604C82.9427 5.31005 84.0024 7.9101 84.0024 10.9862Z" fill="#FFC328"></path><path d="M102.611 0.411997V14.6667C102.611 16.9006 101.862 18.6766 100.364 19.995C98.8474 21.3317 96.9107 22 94.5537 22C92.1967 22 90.26 21.3317 88.7434 19.995C87.2452 18.6766 86.4961 16.9006 86.4961 14.6667V0.411997H90.6345V14.3096C90.6345 15.4266 90.9451 16.3054 91.5664 16.9463C92.2058 17.5871 93.2016 17.9076 94.5537 17.9076C95.8875 17.9076 96.8741 17.5871 97.5136 16.9463C98.1531 16.3054 98.4729 15.4266 98.4729 14.3096V0.411997H102.611Z" fill="#FFC328"></path><path d="M121.604 21.5605H116.808L109.271 11.6729V21.5605H105.105V0.411997H109.271V9.75031L116.507 0.411997H121.303L113.492 10.6842L121.604 21.5605Z" fill="#FFC328"></path><path d="M137.144 17.578V21.5605H124.071V0.411997H136.979V4.422H128.237V8.92634H136.239V12.8539H128.237V17.578H137.144Z" fill="#FFC328"></path><path d="M156 0.411997V21.5605H152.821L143.777 8.65168V21.5605H139.611V0.411997H142.79L151.834 13.3208V0.411997H156Z" fill="#FFC328"></path><path fill-rule="evenodd" clip-rule="evenodd" d="M70.5727 10.9863C70.5727 13.1469 70.0703 15.0512 69.0654 16.6991C68.6634 17.34 68.1975 17.9443 67.6676 18.5119C67.2291 18.9696 66.7723 19.3724 66.2972 19.7203C64.6163 20.9471 62.6521 21.5605 60.4048 21.5605H41.1926L40.9185 20.764L39.7948 17.578H52.0183V12.9913H38.1778L36.78 9.00875H52.0183V4.422H35.163L33.7653 0.411997H60.4048C62.6521 0.411997 64.6163 1.03456 66.2972 2.27967C66.7723 2.62757 67.2291 3.03037 67.6676 3.48813C68.1975 4.03745 68.6542 4.63253 69.0379 5.2734C70.0611 6.93965 70.5727 8.84394 70.5727 10.9863ZM66.5987 10.9863C66.5987 10.3637 66.5348 9.7778 66.4069 9.22849C66.1694 8.05662 65.6578 7.05866 64.8721 6.2347C64.5067 5.83187 64.0956 5.50232 63.6388 5.24597C62.7252 4.69666 61.6472 4.422 60.4048 4.422H56.1841V17.578H60.4048C61.6472 17.578 62.7252 17.3034 63.6388 16.754C64.0956 16.4794 64.5067 16.1498 64.8721 15.7653C65.6578 14.923 66.1694 13.9251 66.4069 12.7715C66.5348 12.2222 66.5987 11.6271 66.5987 10.9863Z" fill="#FFC328"></path><path fill-rule="evenodd" clip-rule="evenodd" d="M38.5889 21.5605H34.0668L32.7787 17.7703H24.3922L23.104 21.5605H18.6367L26.0091 0.411997H31.1616L32.5594 4.422L34.1764 9.00875L35.5742 12.9913L37.1912 17.578L38.5889 21.5605ZM31.4905 13.8702L28.6128 5.21848L25.7077 13.8702H31.4905Z" fill="#FFC328"></path></svg>